<?xml version="1.0" encoding="utf-8" standalone="no"?>
<!DOCTYPE svg PUBLIC "-//W3C//DTD SVG 1.1//EN"
  "http://www.w3.org/Graphics/SVG/1.1/DTD/svg11.dtd">
<svg xmlns:xlink="http://www.w3.org/1999/xlink" width="460.8pt" height="345.6pt" viewBox="0 0 460.8 345.6" xmlns="http://www.w3.org/2000/svg" version="1.1">
 <metadata>
  <rdf:RDF xmlns:dc="http://purl.org/dc/elements/1.1/" xmlns:cc="http://creativecommons.org/ns#" xmlns:rdf="http://www.w3.org/1999/02/22-rdf-syntax-ns#">
   <cc:Work>
    <dc:type rdf:resource="http://purl.org/dc/dcmitype/StillImage"/>
    <dc:date>2023-02-22T14:49:43.450683</dc:date>
    <dc:format>image/svg+xml</dc:format>
    <dc:creator>
     <cc:Agent>
      <dc:title>Matplotlib v3.7.0, https://matplotlib.org/</dc:title>
     </cc:Agent>
    </dc:creator>
   </cc:Work>
  </rdf:RDF>
 </metadata>
 <defs>
  <style type="text/css">*{stroke-linejoin: round; stroke-linecap: butt}</style>
 </defs>
 <g id="figure_1">
  <g id="patch_1">
   <path d="M 0 345.6 
L 460.8 345.6 
L 460.8 0 
L 0 0 
z
" style="fill: #ffffff"/>
  </g>
  <g id="axes_1">
   <g id="patch_2">
    <path d="M 57.6 307.584 
L 414.72 307.584 
L 414.72 41.472 
L 57.6 41.472 
z
" style="fill: #ffffff"/>
   </g>
   <g id="matplotlib.axis_1">
    <g id="xtick_1">
     <g id="line2d_1">
      <defs>
       <path id="meb7c358350" d="M 0 0 
L 0 3.5 
" style="stroke: #000000; stroke-width: 0.8"/>
      </defs>
      <g>
       <use xlink:href="#meb7c358350" x="73.832727" y="307.584" style="stroke: #000000; stroke-width: 0.8"/>
      </g>
     </g>
     <g id="text_1">
      <!-- 0 -->
      <g transform="translate(70.015227 323.702125) scale(0.12 -0.12)">
       <defs>
        <path id="DejaVuSans-30" d="M 2034 4250 
Q 1547 4250 1301 3770 
Q 1056 3291 1056 2328 
Q 1056 1369 1301 889 
Q 1547 409 2034 409 
Q 2525 409 2770 889 
Q 3016 1369 3016 2328 
Q 3016 3291 2770 3770 
Q 2525 4250 2034 4250 
z
M 2034 4750 
Q 2819 4750 3233 4129 
Q 3647 3509 3647 2328 
Q 3647 1150 3233 529 
Q 2819 -91 2034 -91 
Q 1250 -91 836 529 
Q 422 1150 422 2328 
Q 422 3509 836 4129 
Q 1250 4750 2034 4750 
z
" transform="scale(0.015625)"/>
       </defs>
       <use xlink:href="#DejaVuSans-30"/>
      </g>
     </g>
    </g>
    <g id="xtick_2">
     <g id="line2d_2">
      <g>
       <use xlink:href="#meb7c358350" x="123.097453" y="307.584" style="stroke: #000000; stroke-width: 0.8"/>
      </g>
     </g>
     <g id="text_2">
      <!-- 100 -->
      <g transform="translate(111.644953 323.702125) scale(0.12 -0.12)">
       <defs>
        <path id="DejaVuSans-31" d="M 794 531 
L 1825 531 
L 1825 4091 
L 703 3866 
L 703 4441 
L 1819 4666 
L 2450 4666 
L 2450 531 
L 3481 531 
L 3481 0 
L 794 0 
L 794 531 
z
" transform="scale(0.015625)"/>
       </defs>
       <use xlink:href="#DejaVuSans-31"/>
       <use xlink:href="#DejaVuSans-30" x="63.623047"/>
       <use xlink:href="#DejaVuSans-30" x="127.246094"/>
      </g>
     </g>
    </g>
    <g id="xtick_3">
     <g id="line2d_3">
      <g>
       <use xlink:href="#meb7c358350" x="172.36218" y="307.584" style="stroke: #000000; stroke-width: 0.8"/>
      </g>
     </g>
     <g id="text_3">
      <!-- 200 -->
      <g transform="translate(160.90968 323.702125) scale(0.12 -0.12)">
       <defs>
        <path id="DejaVuSans-32" d="M 1228 531 
L 3431 531 
L 3431 0 
L 469 0 
L 469 531 
Q 828 903 1448 1529 
Q 2069 2156 2228 2338 
Q 2531 2678 2651 2914 
Q 2772 3150 2772 3378 
Q 2772 3750 2511 3984 
Q 2250 4219 1831 4219 
Q 1534 4219 1204 4116 
Q 875 4013 500 3803 
L 500 4441 
Q 881 4594 1212 4672 
Q 1544 4750 1819 4750 
Q 2544 4750 2975 4387 
Q 3406 4025 3406 3419 
Q 3406 3131 3298 2873 
Q 3191 2616 2906 2266 
Q 2828 2175 2409 1742 
Q 1991 1309 1228 531 
z
" transform="scale(0.015625)"/>
       </defs>
       <use xlink:href="#DejaVuSans-32"/>
       <use xlink:href="#DejaVuSans-30" x="63.623047"/>
       <use xlink:href="#DejaVuSans-30" x="127.246094"/>
      </g>
     </g>
    </g>
    <g id="xtick_4">
     <g id="line2d_4">
      <g>
       <use xlink:href="#meb7c358350" x="221.626906" y="307.584" style="stroke: #000000; stroke-width: 0.8"/>
      </g>
     </g>
     <g id="text_4">
      <!-- 300 -->
      <g transform="translate(210.174406 323.702125) scale(0.12 -0.12)">
       <defs>
        <path id="DejaVuSans-33" d="M 2597 2516 
Q 3050 2419 3304 2112 
Q 3559 1806 3559 1356 
Q 3559 666 3084 287 
Q 2609 -91 1734 -91 
Q 1441 -91 1130 -33 
Q 819 25 488 141 
L 488 750 
Q 750 597 1062 519 
Q 1375 441 1716 441 
Q 2309 441 2620 675 
Q 2931 909 2931 1356 
Q 2931 1769 2642 2001 
Q 2353 2234 1838 2234 
L 1294 2234 
L 1294 2753 
L 1863 2753 
Q 2328 2753 2575 2939 
Q 2822 3125 2822 3475 
Q 2822 3834 2567 4026 
Q 2313 4219 1838 4219 
Q 1578 4219 1281 4162 
Q 984 4106 628 3988 
L 628 4550 
Q 988 4650 1302 4700 
Q 1616 4750 1894 4750 
Q 2613 4750 3031 4423 
Q 3450 4097 3450 3541 
Q 3450 3153 3228 2886 
Q 3006 2619 2597 2516 
z
" transform="scale(0.015625)"/>
       </defs>
       <use xlink:href="#DejaVuSans-33"/>
       <use xlink:href="#DejaVuSans-30" x="63.623047"/>
       <use xlink:href="#DejaVuSans-30" x="127.246094"/>
      </g>
     </g>
    </g>
    <g id="xtick_5">
     <g id="line2d_5">
      <g>
       <use xlink:href="#meb7c358350" x="270.891632" y="307.584" style="stroke: #000000; stroke-width: 0.8"/>
      </g>
     </g>
     <g id="text_5">
      <!-- 400 -->
      <g transform="translate(259.439132 323.702125) scale(0.12 -0.12)">
       <defs>
        <path id="DejaVuSans-34" d="M 2419 4116 
L 825 1625 
L 2419 1625 
L 2419 4116 
z
M 2253 4666 
L 3047 4666 
L 3047 1625 
L 3713 1625 
L 3713 1100 
L 3047 1100 
L 3047 0 
L 2419 0 
L 2419 1100 
L 313 1100 
L 313 1709 
L 2253 4666 
z
" transform="scale(0.015625)"/>
       </defs>
       <use xlink:href="#DejaVuSans-34"/>
       <use xlink:href="#DejaVuSans-30" x="63.623047"/>
       <use xlink:href="#DejaVuSans-30" x="127.246094"/>
      </g>
     </g>
    </g>
    <g id="xtick_6">
     <g id="line2d_6">
      <g>
       <use xlink:href="#meb7c358350" x="320.156358" y="307.584" style="stroke: #000000; stroke-width: 0.8"/>
      </g>
     </g>
     <g id="text_6">
      <!-- 500 -->
      <g transform="translate(308.703858 323.702125) scale(0.12 -0.12)">
       <defs>
        <path id="DejaVuSans-35" d="M 691 4666 
L 3169 4666 
L 3169 4134 
L 1269 4134 
L 1269 2991 
Q 1406 3038 1543 3061 
Q 1681 3084 1819 3084 
Q 2600 3084 3056 2656 
Q 3513 2228 3513 1497 
Q 3513 744 3044 326 
Q 2575 -91 1722 -91 
Q 1428 -91 1123 -41 
Q 819 9 494 109 
L 494 744 
Q 775 591 1075 516 
Q 1375 441 1709 441 
Q 2250 441 2565 725 
Q 2881 1009 2881 1497 
Q 2881 1984 2565 2268 
Q 2250 2553 1709 2553 
Q 1456 2553 1204 2497 
Q 953 2441 691 2322 
L 691 4666 
z
" transform="scale(0.015625)"/>
       </defs>
       <use xlink:href="#DejaVuSans-35"/>
       <use xlink:href="#DejaVuSans-30" x="63.623047"/>
       <use xlink:href="#DejaVuSans-30" x="127.246094"/>
      </g>
     </g>
    </g>
    <g id="xtick_7">
     <g id="line2d_7">
      <g>
       <use xlink:href="#meb7c358350" x="369.421084" y="307.584" style="stroke: #000000; stroke-width: 0.8"/>
      </g>
     </g>
     <g id="text_7">
      <!-- 600 -->
      <g transform="translate(357.968584 323.702125) scale(0.12 -0.12)">
       <defs>
        <path id="DejaVuSans-36" d="M 2113 2584 
Q 1688 2584 1439 2293 
Q 1191 2003 1191 1497 
Q 1191 994 1439 701 
Q 1688 409 2113 409 
Q 2538 409 2786 701 
Q 3034 994 3034 1497 
Q 3034 2003 2786 2293 
Q 2538 2584 2113 2584 
z
M 3366 4563 
L 3366 3988 
Q 3128 4100 2886 4159 
Q 2644 4219 2406 4219 
Q 1781 4219 1451 3797 
Q 1122 3375 1075 2522 
Q 1259 2794 1537 2939 
Q 1816 3084 2150 3084 
Q 2853 3084 3261 2657 
Q 3669 2231 3669 1497 
Q 3669 778 3244 343 
Q 2819 -91 2113 -91 
Q 1303 -91 875 529 
Q 447 1150 447 2328 
Q 447 3434 972 4092 
Q 1497 4750 2381 4750 
Q 2619 4750 2861 4703 
Q 3103 4656 3366 4563 
z
" transform="scale(0.015625)"/>
       </defs>
       <use xlink:href="#DejaVuSans-36"/>
       <use xlink:href="#DejaVuSans-30" x="63.623047"/>
       <use xlink:href="#DejaVuSans-30" x="127.246094"/>
      </g>
     </g>
    </g>
   </g>
   <g id="matplotlib.axis_2">
    <g id="ytick_1">
     <g id="line2d_8">
      <defs>
       <path id="mb6fa91701a" d="M 0 0 
L -3.5 0 
" style="stroke: #000000; stroke-width: 0.8"/>
      </defs>
      <g>
       <use xlink:href="#mb6fa91701a" x="57.6" y="274.787125" style="stroke: #000000; stroke-width: 0.8"/>
      </g>
     </g>
     <g id="text_8">
      <!-- 23 -->
      <g transform="translate(37.875 278.586343) scale(0.1 -0.1)">
       <use xlink:href="#DejaVuSans-32"/>
       <use xlink:href="#DejaVuSans-33" x="63.623047"/>
      </g>
     </g>
    </g>
    <g id="ytick_2">
     <g id="line2d_9">
      <g>
       <use xlink:href="#mb6fa91701a" x="57.6" y="225.654842" style="stroke: #000000; stroke-width: 0.8"/>
      </g>
     </g>
     <g id="text_9">
      <!-- 24 -->
      <g transform="translate(37.875 229.454061) scale(0.1 -0.1)">
       <use xlink:href="#DejaVuSans-32"/>
       <use xlink:href="#DejaVuSans-34" x="63.623047"/>
      </g>
     </g>
    </g>
    <g id="ytick_3">
     <g id="line2d_10">
      <g>
       <use xlink:href="#mb6fa91701a" x="57.6" y="176.52256" style="stroke: #000000; stroke-width: 0.8"/>
      </g>
     </g>
     <g id="text_10">
      <!-- 25 -->
      <g transform="translate(37.875 180.321779) scale(0.1 -0.1)">
       <use xlink:href="#DejaVuSans-32"/>
       <use xlink:href="#DejaVuSans-35" x="63.623047"/>
      </g>
     </g>
    </g>
    <g id="ytick_4">
     <g id="line2d_11">
      <g>
       <use xlink:href="#mb6fa91701a" x="57.6" y="127.390278" style="stroke: #000000; stroke-width: 0.8"/>
      </g>
     </g>
     <g id="text_11">
      <!-- 26 -->
      <g transform="translate(37.875 131.189496) scale(0.1 -0.1)">
       <use xlink:href="#DejaVuSans-32"/>
       <use xlink:href="#DejaVuSans-36" x="63.623047"/>
      </g>
     </g>
    </g>
    <g id="ytick_5">
     <g id="line2d_12">
      <g>
       <use xlink:href="#mb6fa91701a" x="57.6" y="78.257995" style="stroke: #000000; stroke-width: 0.8"/>
      </g>
     </g>
     <g id="text_12">
      <!-- 27 -->
      <g transform="translate(37.875 82.057214) scale(0.1 -0.1)">
       <defs>
        <path id="DejaVuSans-37" d="M 525 4666 
L 3525 4666 
L 3525 4397 
L 1831 0 
L 1172 0 
L 2766 4134 
L 525 4134 
L 525 4666 
z
" transform="scale(0.015625)"/>
       </defs>
       <use xlink:href="#DejaVuSans-32"/>
       <use xlink:href="#DejaVuSans-37" x="63.623047"/>
      </g>
     </g>
    </g>
    <g id="text_13">
     <!-- ThroughPut (Gbps) -->
     <g transform="translate(31.795312 221.638937) rotate(-90) scale(0.1 -0.1)">
      <defs>
       <path id="DejaVuSans-54" d="M -19 4666 
L 3928 4666 
L 3928 4134 
L 2272 4134 
L 2272 0 
L 1638 0 
L 1638 4134 
L -19 4134 
L -19 4666 
z
" transform="scale(0.015625)"/>
       <path id="DejaVuSans-68" d="M 3513 2113 
L 3513 0 
L 2938 0 
L 2938 2094 
Q 2938 2591 2744 2837 
Q 2550 3084 2163 3084 
Q 1697 3084 1428 2787 
Q 1159 2491 1159 1978 
L 1159 0 
L 581 0 
L 581 4863 
L 1159 4863 
L 1159 2956 
Q 1366 3272 1645 3428 
Q 1925 3584 2291 3584 
Q 2894 3584 3203 3211 
Q 3513 2838 3513 2113 
z
" transform="scale(0.015625)"/>
       <path id="DejaVuSans-72" d="M 2631 2963 
Q 2534 3019 2420 3045 
Q 2306 3072 2169 3072 
Q 1681 3072 1420 2755 
Q 1159 2438 1159 1844 
L 1159 0 
L 581 0 
L 581 3500 
L 1159 3500 
L 1159 2956 
Q 1341 3275 1631 3429 
Q 1922 3584 2338 3584 
Q 2397 3584 2469 3576 
Q 2541 3569 2628 3553 
L 2631 2963 
z
" transform="scale(0.015625)"/>
       <path id="DejaVuSans-6f" d="M 1959 3097 
Q 1497 3097 1228 2736 
Q 959 2375 959 1747 
Q 959 1119 1226 758 
Q 1494 397 1959 397 
Q 2419 397 2687 759 
Q 2956 1122 2956 1747 
Q 2956 2369 2687 2733 
Q 2419 3097 1959 3097 
z
M 1959 3584 
Q 2709 3584 3137 3096 
Q 3566 2609 3566 1747 
Q 3566 888 3137 398 
Q 2709 -91 1959 -91 
Q 1206 -91 779 398 
Q 353 888 353 1747 
Q 353 2609 779 3096 
Q 1206 3584 1959 3584 
z
" transform="scale(0.015625)"/>
       <path id="DejaVuSans-75" d="M 544 1381 
L 544 3500 
L 1119 3500 
L 1119 1403 
Q 1119 906 1312 657 
Q 1506 409 1894 409 
Q 2359 409 2629 706 
Q 2900 1003 2900 1516 
L 2900 3500 
L 3475 3500 
L 3475 0 
L 2900 0 
L 2900 538 
Q 2691 219 2414 64 
Q 2138 -91 1772 -91 
Q 1169 -91 856 284 
Q 544 659 544 1381 
z
M 1991 3584 
L 1991 3584 
z
" transform="scale(0.015625)"/>
       <path id="DejaVuSans-67" d="M 2906 1791 
Q 2906 2416 2648 2759 
Q 2391 3103 1925 3103 
Q 1463 3103 1205 2759 
Q 947 2416 947 1791 
Q 947 1169 1205 825 
Q 1463 481 1925 481 
Q 2391 481 2648 825 
Q 2906 1169 2906 1791 
z
M 3481 434 
Q 3481 -459 3084 -895 
Q 2688 -1331 1869 -1331 
Q 1566 -1331 1297 -1286 
Q 1028 -1241 775 -1147 
L 775 -588 
Q 1028 -725 1275 -790 
Q 1522 -856 1778 -856 
Q 2344 -856 2625 -561 
Q 2906 -266 2906 331 
L 2906 616 
Q 2728 306 2450 153 
Q 2172 0 1784 0 
Q 1141 0 747 490 
Q 353 981 353 1791 
Q 353 2603 747 3093 
Q 1141 3584 1784 3584 
Q 2172 3584 2450 3431 
Q 2728 3278 2906 2969 
L 2906 3500 
L 3481 3500 
L 3481 434 
z
" transform="scale(0.015625)"/>
       <path id="DejaVuSans-50" d="M 1259 4147 
L 1259 2394 
L 2053 2394 
Q 2494 2394 2734 2622 
Q 2975 2850 2975 3272 
Q 2975 3691 2734 3919 
Q 2494 4147 2053 4147 
L 1259 4147 
z
M 628 4666 
L 2053 4666 
Q 2838 4666 3239 4311 
Q 3641 3956 3641 3272 
Q 3641 2581 3239 2228 
Q 2838 1875 2053 1875 
L 1259 1875 
L 1259 0 
L 628 0 
L 628 4666 
z
" transform="scale(0.015625)"/>
       <path id="DejaVuSans-74" d="M 1172 4494 
L 1172 3500 
L 2356 3500 
L 2356 3053 
L 1172 3053 
L 1172 1153 
Q 1172 725 1289 603 
Q 1406 481 1766 481 
L 2356 481 
L 2356 0 
L 1766 0 
Q 1100 0 847 248 
Q 594 497 594 1153 
L 594 3053 
L 172 3053 
L 172 3500 
L 594 3500 
L 594 4494 
L 1172 4494 
z
" transform="scale(0.015625)"/>
       <path id="DejaVuSans-20" transform="scale(0.015625)"/>
       <path id="DejaVuSans-28" d="M 1984 4856 
Q 1566 4138 1362 3434 
Q 1159 2731 1159 2009 
Q 1159 1288 1364 580 
Q 1569 -128 1984 -844 
L 1484 -844 
Q 1016 -109 783 600 
Q 550 1309 550 2009 
Q 550 2706 781 3412 
Q 1013 4119 1484 4856 
L 1984 4856 
z
" transform="scale(0.015625)"/>
       <path id="DejaVuSans-47" d="M 3809 666 
L 3809 1919 
L 2778 1919 
L 2778 2438 
L 4434 2438 
L 4434 434 
Q 4069 175 3628 42 
Q 3188 -91 2688 -91 
Q 1594 -91 976 548 
Q 359 1188 359 2328 
Q 359 3472 976 4111 
Q 1594 4750 2688 4750 
Q 3144 4750 3555 4637 
Q 3966 4525 4313 4306 
L 4313 3634 
Q 3963 3931 3569 4081 
Q 3175 4231 2741 4231 
Q 1884 4231 1454 3753 
Q 1025 3275 1025 2328 
Q 1025 1384 1454 906 
Q 1884 428 2741 428 
Q 3075 428 3337 486 
Q 3600 544 3809 666 
z
" transform="scale(0.015625)"/>
       <path id="DejaVuSans-62" d="M 3116 1747 
Q 3116 2381 2855 2742 
Q 2594 3103 2138 3103 
Q 1681 3103 1420 2742 
Q 1159 2381 1159 1747 
Q 1159 1113 1420 752 
Q 1681 391 2138 391 
Q 2594 391 2855 752 
Q 3116 1113 3116 1747 
z
M 1159 2969 
Q 1341 3281 1617 3432 
Q 1894 3584 2278 3584 
Q 2916 3584 3314 3078 
Q 3713 2572 3713 1747 
Q 3713 922 3314 415 
Q 2916 -91 2278 -91 
Q 1894 -91 1617 61 
Q 1341 213 1159 525 
L 1159 0 
L 581 0 
L 581 4863 
L 1159 4863 
L 1159 2969 
z
" transform="scale(0.015625)"/>
       <path id="DejaVuSans-70" d="M 1159 525 
L 1159 -1331 
L 581 -1331 
L 581 3500 
L 1159 3500 
L 1159 2969 
Q 1341 3281 1617 3432 
Q 1894 3584 2278 3584 
Q 2916 3584 3314 3078 
Q 3713 2572 3713 1747 
Q 3713 922 3314 415 
Q 2916 -91 2278 -91 
Q 1894 -91 1617 61 
Q 1341 213 1159 525 
z
M 3116 1747 
Q 3116 2381 2855 2742 
Q 2594 3103 2138 3103 
Q 1681 3103 1420 2742 
Q 1159 2381 1159 1747 
Q 1159 1113 1420 752 
Q 1681 391 2138 391 
Q 2594 391 2855 752 
Q 3116 1113 3116 1747 
z
" transform="scale(0.015625)"/>
       <path id="DejaVuSans-73" d="M 2834 3397 
L 2834 2853 
Q 2591 2978 2328 3040 
Q 2066 3103 1784 3103 
Q 1356 3103 1142 2972 
Q 928 2841 928 2578 
Q 928 2378 1081 2264 
Q 1234 2150 1697 2047 
L 1894 2003 
Q 2506 1872 2764 1633 
Q 3022 1394 3022 966 
Q 3022 478 2636 193 
Q 2250 -91 1575 -91 
Q 1294 -91 989 -36 
Q 684 19 347 128 
L 347 722 
Q 666 556 975 473 
Q 1284 391 1588 391 
Q 1994 391 2212 530 
Q 2431 669 2431 922 
Q 2431 1156 2273 1281 
Q 2116 1406 1581 1522 
L 1381 1569 
Q 847 1681 609 1914 
Q 372 2147 372 2553 
Q 372 3047 722 3315 
Q 1072 3584 1716 3584 
Q 2034 3584 2315 3537 
Q 2597 3491 2834 3397 
z
" transform="scale(0.015625)"/>
       <path id="DejaVuSans-29" d="M 513 4856 
L 1013 4856 
Q 1481 4119 1714 3412 
Q 1947 2706 1947 2009 
Q 1947 1309 1714 600 
Q 1481 -109 1013 -844 
L 513 -844 
Q 928 -128 1133 580 
Q 1338 1288 1338 2009 
Q 1338 2731 1133 3434 
Q 928 4138 513 4856 
z
" transform="scale(0.015625)"/>
      </defs>
      <use xlink:href="#DejaVuSans-54"/>
      <use xlink:href="#DejaVuSans-68" x="61.083984"/>
      <use xlink:href="#DejaVuSans-72" x="124.462891"/>
      <use xlink:href="#DejaVuSans-6f" x="163.326172"/>
      <use xlink:href="#DejaVuSans-75" x="224.507812"/>
      <use xlink:href="#DejaVuSans-67" x="287.886719"/>
      <use xlink:href="#DejaVuSans-68" x="351.363281"/>
      <use xlink:href="#DejaVuSans-50" x="414.742188"/>
      <use xlink:href="#DejaVuSans-75" x="473.294922"/>
      <use xlink:href="#DejaVuSans-74" x="536.673828"/>
      <use xlink:href="#DejaVuSans-20" x="575.882812"/>
      <use xlink:href="#DejaVuSans-28" x="607.669922"/>
      <use xlink:href="#DejaVuSans-47" x="646.683594"/>
      <use xlink:href="#DejaVuSans-62" x="724.173828"/>
      <use xlink:href="#DejaVuSans-70" x="787.650391"/>
      <use xlink:href="#DejaVuSans-73" x="851.126953"/>
      <use xlink:href="#DejaVuSans-29" x="903.226562"/>
     </g>
    </g>
   </g>
   <g id="line2d_13">
    <path d="M 73.832727 75.887753 
L 74.325375 68.276749 
L 74.818022 73.554302 
L 75.310669 70.758526 
L 75.803316 70.642665 
L 76.295964 68.518546 
L 76.788611 65.581162 
L 77.281258 64.630766 
L 77.773905 71.525895 
L 78.266553 65.814004 
L 78.7592 66.422414 
L 79.251847 66.710667 
L 79.744494 72.231695 
L 80.237142 65.655604 
L 80.729789 67.234 
L 81.222436 65.901319 
L 81.715083 68.460896 
L 82.207731 65.29123 
L 82.700378 69.337969 
L 83.193025 64.713044 
L 83.685673 71.199021 
L 84.17832 75.240163 
L 84.670967 65.716613 
L 85.163614 76.710534 
L 85.656262 83.010126 
L 86.641556 62.977368 
L 87.134203 66.640703 
L 87.626851 81.047206 
L 88.119498 67.534008 
L 88.612145 66.52876 
L 89.104792 70.546953 
L 89.59744 70.361688 
L 90.090087 75.46349 
L 91.075381 69.017812 
L 91.568029 82.059171 
L 92.060676 64.135418 
L 92.553323 63.135208 
L 93.04597 74.207489 
L 93.538618 70.900693 
L 94.031265 72.050348 
L 94.523912 64.302214 
L 95.01656 85.343578 
L 95.509207 71.364137 
L 96.001854 64.765098 
L 96.494501 68.3747 
L 96.987149 58.100572 
L 97.479796 75.138295 
L 97.972443 63.012071 
L 98.46509 68.526382 
L 98.957738 68.938892 
L 99.450385 74.163272 
L 99.943032 70.811698 
L 100.435679 62.732773 
L 100.928327 69.655887 
L 101.420974 72.704654 
L 101.913621 64.835062 
L 102.898916 65.041597 
L 103.391563 69.219869 
L 103.88421 81.150194 
L 104.376857 73.334334 
L 104.869505 75.573753 
L 105.854799 84.929389 
L 106.347447 72.71305 
L 106.840094 79.354628 
L 107.332741 78.044895 
L 108.318036 85.294883 
L 108.810683 71.753699 
L 109.30333 82.533809 
L 109.795977 82.481196 
L 110.288625 75.631404 
L 110.781272 63.320473 
L 111.273919 59.232875 
L 111.766566 69.074903 
L 112.259214 61.85402 
L 112.751861 72.786933 
L 113.244508 72.260801 
L 113.737155 68.263876 
L 114.229803 66.521483 
L 114.72245 61.673792 
L 115.215097 73.882295 
L 116.200392 68.016482 
L 116.693039 59.237913 
L 117.185686 61.26464 
L 117.678334 71.920494 
L 118.170981 63.183343 
L 118.663628 63.3076 
L 119.156275 64.685059 
L 119.648923 66.932874 
L 120.14157 63.019907 
L 121.126864 59.736059 
L 121.619512 65.222385 
L 122.112159 63.220844 
L 122.604806 62.121564 
L 123.097453 66.297597 
L 123.590101 72.593831 
L 124.082748 63.833732 
L 124.575395 57.704853 
L 125.068042 67.068885 
L 125.56069 70.974576 
L 126.053337 63.303122 
L 127.038632 66.198528 
L 127.531279 72.310615 
L 128.023926 67.091273 
L 128.516573 60.373574 
L 129.009221 66.203565 
L 129.501868 65.936021 
L 129.994515 71.833178 
L 130.487162 59.258622 
L 130.97981 62.433885 
L 131.472457 67.86312 
L 131.965104 71.469923 
L 132.457751 68.58963 
L 132.950399 81.918682 
L 133.443046 76.222463 
L 133.935693 63.797351 
L 134.42834 68.261077 
L 135.413635 74.743696 
L 135.906282 65.475376 
L 136.891577 71.580187 
L 137.384224 69.971566 
L 137.876871 71.489513 
L 138.369519 64.085604 
L 138.862166 73.179293 
L 139.84746 60.796159 
L 140.340108 62.001225 
L 140.832755 67.417587 
L 141.325402 70.653859 
L 141.818049 60.432904 
L 142.310697 66.60656 
L 142.803344 66.706189 
L 143.295991 70.326426 
L 143.788638 66.330621 
L 144.281286 71.7912 
L 144.773933 79.569558 
L 145.26658 74.16607 
L 145.759227 59.927481 
L 146.251875 61.433115 
L 146.744522 67.086236 
L 147.237169 66.752646 
L 147.729817 60.837578 
L 148.222464 59.371684 
L 148.715111 66.164945 
L 149.207758 79.50855 
L 149.700406 69.382746 
L 150.193053 64.559123 
L 150.6857 82.43362 
L 151.178347 106.295388 
L 151.670995 102.781498 
L 152.163642 63.375885 
L 152.656289 72.549054 
L 153.148936 69.251773 
L 153.641584 58.132475 
L 154.134231 57.861573 
L 154.626878 70.424376 
L 155.119525 69.645812 
L 155.612173 59.995207 
L 156.10482 60.511264 
L 156.597467 62.113728 
L 157.090114 73.309706 
L 158.075409 60.976947 
L 158.568056 66.079309 
L 159.060704 66.384913 
L 159.553351 73.533592 
L 160.045998 61.26464 
L 161.031293 67.132692 
L 161.52394 60.715 
L 162.016587 61.731443 
L 162.509234 63.253867 
L 163.001882 62.121564 
L 163.494529 78.024745 
L 163.987176 70.8089 
L 164.479823 85.749371 
L 164.972471 114.814809 
L 165.465118 125.817126 
L 165.957765 93.756654 
L 166.450412 100.857198 
L 166.94306 104.670536 
L 167.435707 109.903311 
L 167.928354 84.501767 
L 168.421002 74.611603 
L 168.913649 90.153209 
L 169.406296 110.328134 
L 169.898943 98.168887 
L 170.391591 115.956068 
L 170.884238 78.736143 
L 171.376885 90.686617 
L 171.869532 89.401511 
L 172.36218 137.920962 
L 172.854827 78.539683 
L 173.347474 64.018438 
L 173.840121 68.529741 
L 174.332769 114.705105 
L 174.825416 84.042241 
L 175.318063 75.785885 
L 175.81071 102.871612 
L 177.288652 78.05385 
L 177.781299 74.508056 
L 178.273947 65.84143 
L 178.766594 87.862295 
L 179.259241 79.839901 
L 179.751889 87.305379 
L 180.244536 121.465902 
L 180.737183 89.22688 
L 181.22983 65.044955 
L 181.722478 61.181243 
L 182.215125 71.310405 
L 182.707772 70.883342 
L 183.200419 70.810019 
L 183.693067 65.151301 
L 184.185714 91.049872 
L 184.678361 133.95986 
L 185.171008 90.996699 
L 185.663656 67.179708 
L 186.156303 65.772585 
L 186.64895 71.203499 
L 187.141597 69.459427 
L 187.634245 64.274787 
L 188.126892 71.88859 
L 188.619539 77.668766 
L 189.112187 67.636995 
L 190.097481 84.819685 
L 190.590128 71.342308 
L 191.082776 61.527147 
L 191.575423 62.611315 
L 192.06807 64.509868 
L 192.560717 77.303832 
L 193.053365 93.771206 
L 193.546012 100.040014 
L 194.038659 118.923117 
L 194.531306 94.311331 
L 195.023954 60.581788 
L 195.516601 69.831078 
L 196.009248 72.160052 
L 196.501895 75.713122 
L 196.994543 62.079585 
L 197.48719 60.61817 
L 198.472484 67.007316 
L 198.965132 64.852973 
L 199.457779 64.670506 
L 199.950426 68.778814 
L 200.443074 76.69878 
L 200.935721 65.719971 
L 201.428368 69.933506 
L 201.921015 65.32985 
L 202.413663 80.577045 
L 202.90631 65.38862 
L 203.398957 85.04413 
L 203.891604 82.500226 
L 204.876899 64.065454 
L 205.369546 60.681977 
L 206.354841 72.381699 
L 206.847488 73.500009 
L 207.340135 67.699124 
L 207.832782 81.340497 
L 208.32543 89.575023 
L 208.818077 91.222824 
L 209.310724 75.394085 
L 209.803371 133.810976 
L 210.296019 74.077635 
L 210.788666 67.410311 
L 211.281313 75.707525 
L 211.773961 64.865846 
L 212.266608 66.927836 
L 212.759255 59.404708 
L 213.74455 69.848989 
L 214.237197 70.408144 
L 214.729844 63.505739 
L 215.222491 66.609359 
L 215.715139 63.371408 
L 216.207786 74.957507 
L 216.700433 74.112338 
L 217.19308 61.793571 
L 217.685728 69.528272 
L 218.178375 67.995773 
L 218.671022 73.924833 
L 219.163669 64.481882 
L 219.656317 71.454811 
L 220.148964 74.200213 
L 220.641611 66.564022 
L 221.134259 62.24638 
L 222.119553 81.375759 
L 222.6122 67.267583 
L 223.104848 63.436334 
L 223.597495 64.809315 
L 224.090142 76.767066 
L 224.582789 62.094698 
L 225.075437 69.916155 
L 225.568084 69.625103 
L 226.060731 71.168237 
L 226.553378 61.032918 
L 227.046026 67.838493 
L 227.538673 65.140667 
L 228.03132 67.137729 
L 228.523967 67.203776 
L 229.016615 64.553526 
L 229.509262 68.927138 
L 230.001909 74.796309 
L 230.494556 63.707236 
L 230.987204 65.085255 
L 231.479851 64.294937 
L 231.972498 66.886977 
L 232.465146 73.981364 
L 232.957793 64.154449 
L 233.45044 71.71284 
L 233.943087 71.687093 
L 234.435735 62.762438 
L 234.928382 60.483278 
L 235.421029 61.34356 
L 235.913676 69.494689 
L 236.406324 61.838348 
L 236.898971 65.031522 
L 237.391618 72.480768 
L 238.376913 66.981009 
L 238.86956 62.890053 
L 239.362207 67.594457 
L 239.854854 75.788684 
L 240.347502 64.812114 
L 240.840149 66.657494 
L 241.332796 64.168442 
L 241.825444 70.466914 
L 242.318091 62.138915 
L 242.810738 65.727808 
L 243.303385 66.614396 
L 243.796033 72.32013 
L 244.28868 61.063703 
L 244.781327 69.756636 
L 245.273974 69.970447 
L 245.766622 71.084839 
L 246.259269 66.955822 
L 246.751916 66.745369 
L 247.244563 66.965337 
L 247.737211 75.566477 
L 248.229858 72.707453 
L 248.722505 62.156266 
L 249.215152 68.423954 
L 249.7078 81.094782 
L 250.200447 64.116948 
L 250.693094 63.567308 
L 251.185741 75.97227 
L 251.678389 70.865991 
L 252.171036 69.912796 
L 252.663683 60.493353 
L 253.648978 75.074488 
L 254.141625 62.998637 
L 254.634272 77.894891 
L 255.12692 68.439626 
L 255.619567 66.539954 
L 256.112214 95.978722 
L 256.604861 64.510987 
L 257.097509 66.97933 
L 257.590156 74.380441 
L 258.082803 65.05447 
L 258.57545 61.870812 
L 259.068098 69.33685 
L 259.560745 70.253103 
L 260.546039 64.139336 
L 261.038687 65.966246 
L 261.531334 76.537023 
L 262.023981 63.58242 
L 262.516629 63.734103 
L 263.501923 72.43935 
L 263.99457 62.185372 
L 264.487218 61.257364 
L 264.979865 68.031035 
L 265.472512 70.402547 
L 265.965159 68.247085 
L 266.457807 60.908102 
L 266.950454 64.538413 
L 267.443101 77.472307 
L 267.935748 64.961558 
L 268.428396 59.692401 
L 268.921043 62.646577 
L 269.41369 63.413946 
L 269.906337 64.978909 
L 270.398985 63.58186 
L 270.891632 67.043138 
L 271.384279 71.471602 
L 271.876926 67.755095 
L 272.369574 67.829537 
L 272.862221 70.546953 
L 273.354868 69.832197 
L 273.847516 65.360075 
L 274.340163 71.394362 
L 274.83281 68.674707 
L 275.325457 67.616286 
L 275.818105 65.708217 
L 276.310752 70.885581 
L 276.803399 67.680093 
L 277.296046 73.964013 
L 278.281341 61.414084 
L 278.773988 108.810747 
L 279.266635 102.806685 
L 279.759283 68.47209 
L 280.25193 67.723191 
L 280.744577 85.323988 
L 281.237224 96.161189 
L 281.729872 73.735649 
L 282.222519 64.964916 
L 282.715166 73.727254 
L 283.207813 75.136616 
L 283.700461 72.311175 
L 284.193108 67.241277 
L 284.685755 70.350493 
L 285.178403 79.185594 
L 285.67105 77.971572 
L 286.163697 85.309435 
L 286.656344 83.056583 
L 287.148992 79.102196 
L 287.641639 80.005017 
L 288.134286 82.381007 
L 288.626933 66.816453 
L 289.119581 74.138644 
L 289.612228 77.79974 
L 290.104875 77.437044 
L 290.597522 65.027604 
L 291.09017 75.645397 
L 291.582817 66.491818 
L 292.075464 65.111002 
L 292.568111 72.87145 
L 293.060759 69.55234 
L 293.553406 64.072171 
L 294.046053 61.841707 
L 294.538701 63.158156 
L 295.031348 75.679539 
L 295.523995 66.199647 
L 296.016642 69.332372 
L 296.50929 66.046285 
L 297.001937 66.653016 
L 297.494584 75.828424 
L 297.987231 63.34678 
L 298.479879 65.274438 
L 298.972526 65.032082 
L 299.465173 61.840587 
L 299.95782 72.487485 
L 300.450468 66.826528 
L 300.943115 67.571509 
L 301.435762 69.875295 
L 301.928409 68.881801 
L 302.421057 65.666239 
L 302.913704 73.745165 
L 303.406351 63.50462 
L 303.898998 60.426747 
L 304.391646 62.075108 
L 304.884293 79.230931 
L 305.37694 61.532184 
L 305.869588 67.362175 
L 306.362235 69.814286 
L 306.854882 80.754475 
L 307.840177 59.146679 
L 308.332824 66.088824 
L 308.825471 63.277935 
L 309.318118 65.150182 
L 309.810766 62.034808 
L 310.303413 63.215807 
L 310.79606 71.470483 
L 311.288707 61.659799 
L 311.781355 64.11191 
L 312.766649 70.676247 
L 313.259296 79.088204 
L 313.751944 73.845354 
L 314.244591 73.258772 
L 314.737238 56.469562 
L 315.229886 66.925038 
L 315.722533 61.476213 
L 316.21518 63.519732 
L 316.707827 70.704793 
L 317.200475 68.964639 
L 317.693122 68.361266 
L 318.185769 64.512666 
L 318.678416 67.201537 
L 319.171064 64.924057 
L 319.663711 64.727597 
L 320.156358 84.980883 
L 320.649005 74.12633 
L 321.141653 81.764761 
L 321.6343 75.1674 
L 322.126947 88.808214 
L 322.619594 70.723823 
L 323.112242 65.475376 
L 323.604889 64.055939 
L 324.097536 64.522181 
L 324.590183 68.638885 
L 325.082831 70.421017 
L 325.575478 67.011234 
L 326.068125 72.195314 
L 326.560773 66.093861 
L 327.05342 69.449912 
L 327.546067 69.334051 
L 328.038714 66.041808 
L 328.531362 81.654497 
L 329.024009 67.70696 
L 329.516656 65.255408 
L 330.009303 64.331319 
L 330.501951 70.483706 
L 330.994598 58.605994 
L 331.487245 70.250304 
L 331.979892 67.912375 
L 332.47254 72.102961 
L 332.965187 61.230498 
L 333.457834 63.828695 
L 333.950481 65.335447 
L 334.443129 67.971145 
L 335.428423 62.563739 
L 335.92107 62.161863 
L 336.413718 73.632662 
L 336.906365 70.797706 
L 337.399012 62.282762 
L 337.89166 63.552755 
L 338.384307 78.589498 
L 338.876954 66.971494 
L 339.369601 67.380646 
L 339.862249 60.308088 
L 340.354896 72.405767 
L 340.847543 66.049644 
L 341.34019 66.045726 
L 341.832838 66.475027 
L 342.325485 67.146125 
L 342.818132 65.559893 
L 343.310779 67.911256 
L 343.803427 62.813372 
L 344.296074 80.856903 
L 344.788721 71.710041 
L 345.281368 72.821635 
L 345.774016 65.217347 
L 346.266663 70.340978 
L 346.75931 69.06147 
L 347.251958 62.055518 
L 347.744605 65.258766 
L 348.237252 69.37435 
L 348.729899 67.919651 
L 349.222547 63.748655 
L 349.715194 68.556047 
L 350.207841 71.416191 
L 350.700488 62.159065 
L 351.193136 60.464248 
L 352.17843 70.614679 
L 352.671077 65.479294 
L 353.163725 66.88082 
L 353.656372 66.323344 
L 354.149019 74.610484 
L 354.641666 60.351186 
L 355.134314 62.084063 
L 355.626961 67.437177 
L 356.119608 71.18279 
L 356.612255 63.064684 
L 357.104903 66.50861 
L 357.59755 67.601173 
L 358.090197 68.192792 
L 358.582845 61.770623 
L 360.060786 69.078821 
L 360.553434 71.856686 
L 361.046081 59.623556 
L 361.538728 68.298578 
L 362.031375 69.327334 
L 362.524023 63.951272 
L 363.01667 65.240855 
L 363.509317 61.2652 
L 364.001964 66.289202 
L 364.494612 63.768245 
L 364.987259 65.052232 
L 365.479906 64.575914 
L 365.972553 71.805193 
L 366.465201 62.009621 
L 366.957848 66.514207 
L 367.450495 65.064545 
L 367.943143 72.523307 
L 368.928437 64.363782 
L 369.913732 68.704372 
L 370.406379 68.62881 
L 371.391673 61.538901 
L 371.884321 70.069516 
L 372.376968 66.296478 
L 372.869615 66.864029 
L 373.362262 63.5438 
L 373.85491 69.981641 
L 374.347557 61.630694 
L 374.840204 61.064262 
L 375.332851 63.041735 
L 375.825499 78.64379 
L 376.318146 66.973173 
L 376.810793 60.75418 
L 377.30344 65.835832 
L 377.796088 68.344475 
L 378.288735 57.852058 
L 379.27403 64.860249 
L 379.766677 71.307606 
L 380.259324 63.164873 
L 380.751971 61.026202 
L 381.244619 73.816808 
L 381.737266 66.84164 
L 382.229913 63.345101 
L 382.72256 67.213291 
L 383.215208 64.993461 
L 383.707855 67.530649 
L 384.200502 62.530156 
L 384.693149 72.209307 
L 385.185797 68.961281 
L 385.678444 72.166768 
L 386.171091 70.793788 
L 386.663738 63.101625 
L 387.156386 65.417725 
L 387.649033 85.204769 
L 388.14168 68.847659 
L 388.634327 64.52442 
L 389.126975 65.260446 
L 389.619622 76.701019 
L 390.604917 61.662038 
L 391.097564 63.727946 
L 391.590211 70.379599 
L 392.082858 62.427728 
L 392.575506 66.808057 
L 393.068153 64.882638 
L 393.5608 68.536457 
L 394.053447 64.598862 
L 394.546095 62.059436 
L 395.038742 62.096377 
L 395.531389 66.345173 
L 396.024036 71.760975 
L 396.516684 67.393519 
L 397.009331 66.404503 
L 397.501978 75.291657 
L 397.994625 64.075529 
L 398.487273 63.801828 
L 398.487273 63.801828 
" clip-path="url(#pc987069f5a)" style="fill: none; stroke: #1f77b4; stroke-width: 1.5; stroke-linecap: square"/>
   </g>
   <g id="line2d_14">
    <path d="M 73.832727 88.786385 
L 74.325375 85.342459 
L 74.818022 85.071557 
L 75.310669 84.432362 
L 75.803316 82.62952 
L 76.295964 98.18176 
L 76.788611 95.128515 
L 77.281258 102.405369 
L 77.773905 88.298873 
L 78.266553 84.301389 
L 78.7592 83.583834 
L 79.251847 89.437893 
L 79.744494 86.3214 
L 80.237142 85.095065 
L 80.729789 77.654774 
L 81.222436 86.588944 
L 81.715083 91.36779 
L 82.207731 89.123893 
L 82.700378 80.396817 
L 83.193025 88.114727 
L 83.685673 89.370727 
L 84.17832 88.856909 
L 84.670967 86.109268 
L 85.163614 96.113054 
L 85.656262 93.373809 
L 86.148909 81.252621 
L 86.641556 86.461329 
L 87.134203 89.616442 
L 87.626851 93.867477 
L 88.119498 84.647852 
L 88.612145 82.067566 
L 89.104792 88.998517 
L 89.59744 89.782677 
L 90.090087 85.161671 
L 90.582734 86.063931 
L 91.075381 86.352184 
L 91.568029 82.745941 
L 92.060676 89.603569 
L 92.553323 83.811638 
L 93.538618 88.688994 
L 94.031265 89.317554 
L 94.523912 81.769798 
L 95.01656 82.10003 
L 95.509207 84.409973 
L 96.001854 85.294883 
L 96.494501 84.120601 
L 96.987149 88.057076 
L 97.479796 86.805553 
L 97.972443 82.583064 
L 98.46509 94.763581 
L 98.957738 96.51213 
L 99.450385 97.024829 
L 99.943032 84.105489 
L 100.435679 92.865587 
L 100.928327 90.928974 
L 101.420974 87.210227 
L 101.913621 87.925543 
L 102.406268 80.13543 
L 102.898916 88.965493 
L 103.391563 84.143549 
L 103.88421 85.311674 
L 104.376857 81.184336 
L 104.869505 83.563684 
L 105.362152 79.281305 
L 105.854799 80.780782 
L 106.347447 83.138861 
L 106.840094 78.718792 
L 107.332741 86.293414 
L 107.825388 89.130609 
L 108.318036 82.034543 
L 108.810683 78.006834 
L 109.30333 83.901193 
L 110.288625 89.076317 
L 110.781272 79.230931 
L 111.273919 83.928619 
L 111.766566 87.167129 
L 112.259214 85.873068 
L 112.751861 80.622382 
L 113.244508 86.443978 
L 113.737155 83.185877 
L 114.229803 76.341682 
L 115.707745 86.363379 
L 116.200392 79.608739 
L 116.693039 102.517312 
L 117.185686 118.267131 
L 117.678334 85.500858 
L 118.170981 81.810657 
L 118.663628 79.169362 
L 119.156275 91.028603 
L 119.648923 85.299361 
L 120.14157 88.400741 
L 120.634217 81.273331 
L 121.126864 82.917214 
L 121.619512 83.148936 
L 122.112159 107.875463 
L 122.604806 102.73672 
L 123.097453 92.495056 
L 123.590101 87.856138 
L 124.082748 81.639944 
L 124.575395 86.096954 
L 125.068042 83.764062 
L 125.56069 86.394723 
L 126.053337 94.54921 
L 126.545984 88.603358 
L 127.038632 87.017126 
L 127.531279 96.388433 
L 128.023926 89.133408 
L 128.516573 84.791699 
L 129.009221 98.714609 
L 129.501868 91.738881 
L 129.994515 81.407662 
L 130.487162 91.450628 
L 130.97981 85.352533 
L 131.472457 84.006979 
L 131.965104 81.567181 
L 132.457751 81.780992 
L 132.950399 87.148659 
L 133.443046 118.861549 
L 133.935693 89.695362 
L 134.42834 82.672618 
L 134.920988 87.311536 
L 135.413635 87.157614 
L 135.906282 78.155718 
L 136.39893 83.208265 
L 136.891577 90.494635 
L 137.384224 90.747626 
L 137.876871 84.164818 
L 138.369519 86.36114 
L 138.862166 81.926518 
L 139.354813 82.90378 
L 139.84746 80.858582 
L 140.340108 87.347917 
L 140.832755 80.681712 
L 141.325402 78.962827 
L 141.818049 81.241427 
L 142.310697 79.057979 
L 142.803344 86.966192 
L 143.295991 89.491626 
L 143.788638 79.085405 
L 144.281286 80.493088 
L 144.773933 84.969688 
L 145.26658 99.034206 
L 145.759227 88.770713 
L 146.251875 85.963742 
L 146.744522 81.252621 
L 147.237169 86.735029 
L 147.729817 89.642749 
L 148.222464 85.718027 
L 148.715111 79.966396 
L 149.207758 81.928197 
L 149.700406 83.191474 
L 150.193053 79.528699 
L 150.6857 87.260042 
L 151.178347 86.10535 
L 151.670995 81.049445 
L 152.163642 93.415787 
L 152.656289 87.463778 
L 153.148936 93.634076 
L 153.641584 83.082889 
L 154.134231 81.321466 
L 154.626878 82.231003 
L 155.612173 80.274799 
L 156.10482 84.821924 
L 156.597467 87.997187 
L 157.090114 92.202325 
L 157.582762 87.296983 
L 158.568056 83.470212 
L 159.060704 83.988508 
L 159.553351 79.62497 
L 160.045998 82.803592 
L 160.538645 79.299776 
L 161.031293 85.599368 
L 161.52394 79.182236 
L 162.016587 80.099049 
L 162.509234 82.941281 
L 163.001882 87.717329 
L 163.494529 79.598664 
L 163.987176 79.553327 
L 164.479823 100.328267 
L 165.465118 80.597755 
L 165.957765 85.059243 
L 166.450412 81.571659 
L 166.94306 83.80716 
L 167.435707 79.045106 
L 167.928354 79.759862 
L 168.421002 81.151313 
L 168.913649 81.200008 
L 169.406296 85.317271 
L 169.898943 82.691089 
L 170.391591 82.719634 
L 170.884238 82.236041 
L 171.376885 78.026984 
L 171.869532 83.04315 
L 172.36218 81.009705 
L 172.854827 81.634347 
L 173.347474 76.151939 
L 173.840121 75.024113 
L 174.825416 81.329302 
L 175.318063 81.791067 
L 176.303358 75.937568 
L 176.796005 78.213929 
L 177.288652 78.842489 
L 177.781299 79.002007 
L 178.273947 82.282497 
L 178.766594 84.442437 
L 179.259241 79.365263 
L 179.751889 80.326853 
L 180.244536 83.212743 
L 180.737183 80.755594 
L 181.22983 76.286271 
L 181.722478 81.226874 
L 182.215125 81.611399 
L 182.707772 95.162658 
L 183.200419 77.208681 
L 183.693067 78.320275 
L 184.185714 81.421096 
L 184.678361 81.639944 
L 185.171008 82.524294 
L 185.663656 81.74629 
L 186.156303 101.774011 
L 186.64895 88.846274 
L 187.141597 85.121371 
L 187.634245 89.531365 
L 188.126892 82.741463 
L 188.619539 85.249546 
L 189.112187 81.053923 
L 189.604834 90.771134 
L 190.097481 85.159432 
L 190.590128 95.768829 
L 191.082776 84.266686 
L 191.575423 77.509807 
L 192.06807 82.918333 
L 192.560717 107.849157 
L 193.546012 95.535987 
L 194.038659 96.175742 
L 194.531306 102.063383 
L 195.023954 98.861814 
L 195.516601 97.881193 
L 196.009248 94.977952 
L 196.994543 83.620216 
L 197.48719 78.999209 
L 197.979837 78.206653 
L 198.472484 81.513449 
L 198.965132 79.375337 
L 199.457779 76.418363 
L 199.950426 82.176711 
L 200.443074 80.962689 
L 200.935721 78.593416 
L 201.428368 86.571593 
L 201.921015 79.902029 
L 202.413663 97.895186 
L 202.90631 79.375337 
L 203.398957 79.832624 
L 203.891604 82.103948 
L 204.384252 82.859003 
L 204.876899 76.593554 
L 205.369546 84.322098 
L 205.862193 80.467901 
L 206.354841 85.907771 
L 206.847488 76.810164 
L 207.340135 76.336085 
L 207.832782 80.424803 
L 208.32543 77.845636 
L 208.818077 86.599578 
L 209.310724 91.322453 
L 209.803371 83.928059 
L 210.296019 79.604261 
L 210.788666 76.336085 
L 211.281313 85.617279 
L 211.773961 90.155448 
L 212.266608 86.610213 
L 212.759255 76.814082 
L 213.251902 79.500714 
L 213.74455 80.011174 
L 214.237197 86.016915 
L 214.729844 79.869006 
L 215.222491 79.426831 
L 215.715139 79.572357 
L 216.207786 85.173425 
L 216.700433 78.863758 
L 217.19308 80.66548 
L 217.685728 78.601252 
L 218.178375 80.924628 
L 218.671022 75.44278 
L 219.163669 79.013202 
L 219.656317 87.013767 
L 220.641611 76.558852 
L 221.134259 81.395908 
L 221.626906 82.128016 
L 222.119553 88.392905 
L 222.6122 80.028525 
L 223.104848 82.17727 
L 223.597495 80.520514 
L 224.090142 83.981232 
L 224.582789 89.26774 
L 225.075437 86.8716 
L 225.568084 87.183921 
L 226.553378 77.594324 
L 227.046026 82.108426 
L 227.538673 82.054133 
L 228.03132 84.015374 
L 228.523967 79.029434 
L 229.016615 79.327762 
L 229.509262 83.248565 
L 230.001909 82.331192 
L 230.494556 75.300612 
L 230.987204 82.935684 
L 231.479851 82.084358 
L 231.972498 87.181682 
L 232.465146 82.554518 
L 232.957793 74.955828 
L 233.45044 80.395138 
L 233.943087 87.408366 
L 234.435735 78.147882 
L 234.928382 89.339383 
L 235.421029 86.457411 
L 235.913676 89.452446 
L 236.406324 86.996976 
L 236.898971 108.230323 
L 237.391618 84.743564 
L 237.884265 86.254234 
L 238.376913 77.734253 
L 238.86956 80.709138 
L 239.362207 87.721247 
L 239.854854 82.680454 
L 240.347502 83.522266 
L 240.840149 81.662892 
L 241.332796 83.107517 
L 242.318091 93.784639 
L 242.810738 84.756997 
L 243.303385 89.767565 
L 243.796033 96.612879 
L 244.28868 86.746224 
L 244.781327 92.142436 
L 245.273974 82.382126 
L 245.766622 79.971994 
L 246.259269 79.354628 
L 246.751916 80.631897 
L 247.244563 81.313071 
L 247.737211 77.961497 
L 248.229858 80.350361 
L 248.722505 79.337836 
L 249.215152 79.636724 
L 249.7078 86.905742 
L 250.693094 80.709698 
L 251.185741 82.758814 
L 251.678389 80.148304 
L 252.171036 79.157608 
L 252.663683 80.176289 
L 253.156331 84.340569 
L 253.648978 86.913578 
L 254.141625 76.585158 
L 254.634272 82.304326 
L 255.12692 78.920289 
L 255.619567 82.625602 
L 256.112214 79.262275 
L 256.604861 83.545774 
L 257.097509 83.499877 
L 257.590156 78.943237 
L 258.082803 78.441733 
L 258.57545 80.4304 
L 259.068098 79.873484 
L 259.560745 81.617556 
L 260.053392 77.928474 
L 260.546039 82.828779 
L 261.038687 79.322164 
L 261.531334 86.2033 
L 262.023981 77.396185 
L 262.516629 82.640155 
L 263.009276 76.388139 
L 263.501923 80.776864 
L 263.99457 75.610135 
L 264.487218 77.261854 
L 264.979865 79.365822 
L 265.472512 84.037203 
L 265.965159 83.877125 
L 266.457807 79.135779 
L 266.950454 81.604682 
L 267.443101 81.957302 
L 267.935748 77.063715 
L 268.428396 81.103737 
L 268.921043 77.007183 
L 269.41369 77.501412 
L 269.906337 75.555283 
L 270.398985 78.363373 
L 270.891632 76.301383 
L 271.384279 84.47546 
L 271.876926 76.861657 
L 272.369574 78.537444 
L 272.862221 78.454047 
L 273.847516 82.202458 
L 274.340163 82.971506 
L 274.83281 80.76455 
L 275.325457 84.624904 
L 275.818105 80.37107 
L 276.310752 80.629099 
L 276.803399 83.241289 
L 277.296046 78.597334 
L 277.788694 82.681014 
L 278.281341 84.398779 
L 278.773988 79.575715 
L 279.266635 92.777712 
L 279.759283 80.538425 
L 280.25193 82.071484 
L 280.744577 87.591953 
L 281.237224 86.717678 
L 281.729872 97.642195 
L 282.222519 145.66182 
L 282.715166 94.251442 
L 283.207813 91.155098 
L 283.700461 80.72537 
L 284.193108 80.505962 
L 284.685755 81.202247 
L 285.178403 83.305096 
L 285.67105 79.104435 
L 286.163697 82.752657 
L 286.656344 97.540886 
L 287.148992 101.365978 
L 287.641639 95.046237 
L 288.134286 93.581463 
L 288.626933 103.489537 
L 289.612228 79.691576 
L 290.104875 85.200291 
L 290.597522 80.554097 
L 291.09017 82.998932 
L 291.582817 80.605031 
L 292.075464 85.611681 
L 292.568111 95.490651 
L 293.060759 86.245839 
L 293.553406 87.858937 
L 294.046053 85.316152 
L 294.538701 80.930226 
L 295.031348 83.78925 
L 295.523995 78.517294 
L 296.016642 77.757201 
L 296.50929 83.255841 
L 297.001937 81.19721 
L 297.494584 75.949882 
L 297.987231 82.305445 
L 298.479879 87.171607 
L 298.972526 82.441456 
L 299.465173 81.486022 
L 299.95782 85.572501 
L 300.450468 79.690457 
L 300.943115 87.714531 
L 301.435762 79.521983 
L 301.928409 85.330145 
L 302.421057 80.458946 
L 302.913704 82.289213 
L 303.406351 82.672058 
L 303.898998 83.88664 
L 304.391646 80.317338 
L 305.37694 77.871383 
L 305.869588 86.536331 
L 306.362235 80.476297 
L 306.854882 82.464964 
L 307.347529 77.784068 
L 307.840177 86.213375 
L 308.332824 77.741529 
L 308.825471 82.448732 
L 309.318118 78.78148 
L 309.810766 81.808418 
L 310.303413 81.928757 
L 310.79606 84.012576 
L 311.288707 78.15236 
L 311.781355 78.441733 
L 312.274002 80.303345 
L 312.766649 83.005649 
L 313.259296 83.738875 
L 313.751944 81.458596 
L 314.244591 77.937989 
L 314.737238 82.505823 
L 315.229886 75.591664 
L 315.722533 79.513587 
L 316.21518 81.192172 
L 316.707827 81.587331 
L 317.200475 78.27102 
L 317.693122 81.184896 
L 318.185769 78.176988 
L 318.678416 82.710679 
L 319.171064 77.416335 
L 319.663711 84.918195 
L 321.141653 86.40032 
L 321.6343 84.224148 
L 322.126947 87.918267 
L 322.619594 86.625325 
L 323.112242 83.903991 
L 323.604889 88.7556 
L 324.097536 81.947228 
L 324.590183 86.876078 
L 325.082831 77.17118 
L 325.575478 80.753356 
L 326.068125 83.186996 
L 326.560773 83.425995 
L 327.05342 80.722571 
L 327.546067 85.299361 
L 328.038714 78.535205 
L 328.531362 86.173076 
L 329.024009 77.462791 
L 329.516656 87.69662 
L 330.009303 80.040279 
L 330.501951 86.700327 
L 330.994598 78.611326 
L 331.979892 82.069245 
L 332.47254 80.98004 
L 332.965187 78.281095 
L 333.457834 83.457339 
L 333.950481 83.157331 
L 334.443129 90.416275 
L 334.935776 82.014393 
L 335.428423 82.322237 
L 335.92107 86.290616 
L 336.906365 79.444742 
L 337.399012 87.752591 
L 337.89166 86.338751 
L 338.384307 94.758543 
L 338.876954 77.923996 
L 339.369601 87.517511 
L 339.862249 82.360297 
L 340.354896 87.702777 
L 340.847543 79.083166 
L 341.34019 81.712147 
L 341.832838 82.701723 
L 342.325485 82.934565 
L 342.818132 82.993895 
L 343.310779 85.200851 
L 343.803427 83.974515 
L 344.296074 86.388566 
L 344.788721 75.863126 
L 345.281368 82.600415 
L 345.774016 79.304813 
L 346.266663 77.587048 
L 346.75931 75.293336 
L 347.251958 85.232195 
L 347.744605 81.428372 
L 348.237252 79.788967 
L 348.729899 73.774829 
L 349.222547 84.484975 
L 349.715194 81.633228 
L 350.207841 82.595937 
L 350.700488 84.381428 
L 351.685783 78.077918 
L 352.17843 82.239959 
L 353.163725 79.989345 
L 353.656372 83.095203 
L 354.149019 84.950098 
L 354.641666 81.513449 
L 355.134314 80.943099 
L 355.626961 86.47812 
L 356.119608 81.083028 
L 356.612255 79.054061 
L 357.104903 82.733627 
L 357.59755 79.46881 
L 358.090197 84.310904 
L 359.075492 79.844938 
L 359.568139 79.318246 
L 360.060786 85.799186 
L 360.553434 78.583341 
L 361.046081 78.143405 
L 361.538728 80.655405 
L 362.031375 80.134311 
L 362.524023 81.797784 
L 363.01667 89.046092 
L 363.509317 80.094011 
L 364.001964 83.206027 
L 364.494612 78.793794 
L 364.987259 79.218057 
L 365.479906 81.832486 
L 365.972553 82.131374 
L 366.465201 83.030836 
L 366.957848 79.815833 
L 367.450495 84.703824 
L 367.943143 81.324265 
L 368.43579 84.726212 
L 368.928437 85.383877 
L 369.421084 78.715993 
L 369.913732 80.854664 
L 370.406379 73.592362 
L 370.899026 81.955064 
L 371.391673 82.034543 
L 371.884321 79.773854 
L 372.376968 79.438025 
L 372.869615 85.896576 
L 373.362262 79.66527 
L 374.347557 79.080927 
L 374.840204 81.261577 
L 375.332851 82.622804 
L 375.825499 82.539406 
L 376.318146 78.023626 
L 376.810793 83.080091 
L 377.30344 81.389752 
L 377.796088 83.921902 
L 378.288735 74.674291 
L 378.781382 82.612169 
L 379.27403 80.267523 
L 379.766677 85.518209 
L 380.259324 87.44139 
L 380.751971 79.104995 
L 381.244619 84.626583 
L 381.737266 84.244858 
L 382.229913 81.521285 
L 382.72256 80.132072 
L 383.215208 80.07778 
L 383.707855 80.811006 
L 384.200502 77.980528 
L 384.693149 81.091423 
L 385.185797 100.974178 
L 385.678444 89.131729 
L 386.171091 84.55438 
L 386.663738 95.698864 
L 387.156386 80.50932 
L 387.649033 88.327418 
L 388.14168 79.254439 
L 388.634327 87.386538 
L 389.126975 89.199454 
L 389.619622 81.151873 
L 390.112269 77.840039 
L 390.604917 78.15348 
L 391.097564 85.350854 
L 391.590211 78.804428 
L 392.082858 78.648827 
L 392.575506 106.68495 
L 393.068153 85.275852 
L 393.5608 91.884967 
L 394.053447 95.240458 
L 394.546095 88.027971 
L 395.038742 86.833539 
L 395.531389 81.350571 
L 396.024036 80.169573 
L 396.516684 84.996555 
L 397.009331 82.304885 
L 397.501978 83.37562 
L 397.994625 82.730829 
L 398.487273 81.86495 
L 398.487273 81.86495 
" clip-path="url(#pc987069f5a)" style="fill: none; stroke: #ff7f0e; stroke-width: 1.5; stroke-linecap: square"/>
   </g>
   <g id="line2d_15">
    <path d="M 73.832727 77.871383 
L 74.325375 61.876409 
L 74.818022 58.132475 
L 75.310669 84.074144 
L 75.803316 73.599079 
L 76.295964 96.850758 
L 76.788611 94.892875 
L 77.281258 76.962406 
L 77.773905 76.203992 
L 78.266553 67.970585 
L 78.7592 64.155008 
L 79.251847 69.069306 
L 79.744494 67.278218 
L 80.237142 61.848983 
L 80.729789 120.119228 
L 81.222436 76.323771 
L 81.715083 69.016133 
L 82.700378 60.288498 
L 83.193025 68.013124 
L 83.685673 71.404437 
L 84.17832 65.157458 
L 84.670967 63.736901 
L 85.163614 64.23057 
L 85.656262 71.743064 
L 86.148909 70.098622 
L 86.641556 62.696391 
L 87.134203 63.403871 
L 87.626851 64.445501 
L 88.119498 63.885786 
L 88.612145 63.593055 
L 89.104792 75.471326 
L 89.59744 70.266536 
L 90.090087 62.310188 
L 90.582734 61.28479 
L 91.075381 71.998854 
L 91.568029 63.526449 
L 92.060676 60.178793 
L 93.04597 62.618031 
L 93.538618 65.318656 
L 94.031265 65.11324 
L 94.523912 63.717311 
L 95.01656 67.78476 
L 95.509207 74.924484 
L 96.001854 62.420452 
L 96.494501 64.232809 
L 96.987149 66.499654 
L 97.479796 61.176205 
L 97.972443 59.771321 
L 98.46509 60.290736 
L 98.957738 67.260307 
L 99.943032 66.880261 
L 100.435679 65.696463 
L 101.420974 71.288016 
L 101.913621 63.880748 
L 102.406268 62.057197 
L 102.898916 66.317747 
L 103.391563 60.835339 
L 103.88421 69.33685 
L 104.376857 85.402908 
L 104.869505 71.976465 
L 105.362152 72.554091 
L 105.854799 75.593903 
L 106.347447 74.791832 
L 106.840094 72.711931 
L 107.332741 67.122617 
L 107.825388 76.040556 
L 108.318036 71.16152 
L 108.810683 61.944694 
L 109.30333 65.510638 
L 109.795977 77.408499 
L 110.288625 62.216156 
L 110.781272 76.677511 
L 111.273919 79.905947 
L 111.766566 78.599013 
L 112.259214 75.959957 
L 112.751861 68.584033 
L 113.244508 85.062601 
L 113.737155 71.335032 
L 114.229803 67.885509 
L 114.72245 77.786307 
L 115.215097 71.270665 
L 115.707745 87.691582 
L 116.200392 73.98976 
L 116.693039 70.079591 
L 117.185686 61.838348 
L 117.678334 64.936371 
L 118.170981 55.23707 
L 119.156275 63.295286 
L 119.648923 70.078472 
L 120.14157 53.993943 
L 120.634217 66.537715 
L 121.126864 60.294654 
L 121.619512 71.965831 
L 122.112159 65.610267 
L 122.604806 53.568 
L 123.097453 61.855699 
L 123.590101 61.224341 
L 124.082748 61.361471 
L 124.575395 63.201254 
L 125.068042 59.287167 
L 125.56069 66.817573 
L 126.053337 69.592639 
L 126.545984 57.216782 
L 127.038632 78.124374 
L 128.023926 57.276112 
L 128.516573 65.259886 
L 129.009221 65.308021 
L 129.501868 68.252682 
L 129.994515 63.132409 
L 130.487162 67.23456 
L 130.97981 62.773072 
L 131.472457 67.09799 
L 131.965104 58.487335 
L 132.457751 58.307666 
L 132.950399 57.347755 
L 133.443046 63.702759 
L 133.935693 65.180406 
L 134.42834 59.209367 
L 134.920988 66.599843 
L 135.413635 72.220501 
L 135.906282 67.906778 
L 136.39893 67.334749 
L 136.891577 68.126746 
L 137.384224 65.267162 
L 137.876871 65.557654 
L 138.369519 62.715981 
L 138.862166 67.589979 
L 139.354813 68.479926 
L 139.84746 60.428986 
L 140.340108 68.580675 
L 140.832755 61.934619 
L 141.325402 66.141997 
L 141.818049 61.039075 
L 142.310697 57.863812 
L 142.803344 61.367628 
L 143.295991 63.258345 
L 143.788638 60.825264 
L 144.281286 61.320052 
L 144.773933 55.683723 
L 145.26658 61.398972 
L 145.759227 59.924123 
L 146.251875 58.82988 
L 146.744522 64.588228 
L 147.237169 74.743696 
L 147.729817 59.356012 
L 148.222464 60.846533 
L 148.715111 68.203986 
L 149.207758 69.133673 
L 149.700406 61.627336 
L 150.193053 58.474461 
L 150.6857 74.48063 
L 151.178347 72.198112 
L 151.670995 66.122966 
L 152.163642 65.851505 
L 152.656289 66.013822 
L 153.641584 64.34811 
L 154.134231 62.832402 
L 154.626878 66.600963 
L 155.119525 71.49679 
L 155.612173 62.911882 
L 156.10482 64.223853 
L 156.597467 67.539605 
L 157.090114 86.196584 
L 157.582762 72.553531 
L 158.075409 70.403107 
L 158.568056 90.575234 
L 159.060704 74.433054 
L 159.553351 66.241626 
L 160.045998 65.814004 
L 160.538645 59.520569 
L 161.031293 68.758664 
L 161.52394 68.065737 
L 162.016587 84.362398 
L 162.509234 86.958915 
L 163.001882 67.873195 
L 163.494529 66.750966 
L 163.987176 58.782864 
L 164.479823 71.716758 
L 164.972471 149.567511 
L 165.465118 128.903395 
L 165.957765 194.005521 
L 166.450412 110.648291 
L 166.94306 67.762371 
L 167.435707 76.343921 
L 167.928354 71.148647 
L 168.421002 62.222313 
L 168.913649 70.443966 
L 169.406296 69.207555 
L 169.898943 70.653299 
L 170.391591 63.910973 
L 170.884238 73.119963 
L 171.376885 65.306342 
L 171.869532 73.767553 
L 172.36218 65.600192 
L 172.854827 70.530162 
L 173.347474 71.533731 
L 173.840121 63.455924 
L 174.332769 67.047615 
L 174.825416 78.079597 
L 175.318063 64.300534 
L 175.81071 61.062583 
L 176.303358 63.561711 
L 176.796005 72.922384 
L 177.288652 70.264857 
L 177.781299 73.504487 
L 178.273947 72.260241 
L 178.766594 99.89001 
L 179.259241 101.705725 
L 179.751889 95.909877 
L 180.244536 102.219544 
L 180.737183 115.85364 
L 181.22983 66.228193 
L 181.722478 94.880001 
L 182.215125 171.409828 
L 182.707772 73.480419 
L 183.200419 65.122196 
L 183.693067 92.862789 
L 184.185714 89.409907 
L 184.678361 118.907445 
L 185.171008 101.022313 
L 185.663656 78.855362 
L 186.156303 72.859696 
L 186.64895 77.639102 
L 187.634245 59.905652 
L 188.126892 77.81989 
L 188.619539 87.397732 
L 189.604834 64.573675 
L 190.097481 68.927138 
L 190.590128 71.724594 
L 191.082776 88.122003 
L 191.575423 63.633354 
L 192.06807 181.723696 
L 192.560717 151.999473 
L 193.053365 73.713821 
L 193.546012 79.588589 
L 194.038659 71.486155 
L 194.531306 71.213574 
L 195.023954 86.939885 
L 195.516601 89.743497 
L 196.009248 194.93073 
L 196.501895 76.44523 
L 196.994543 63.274017 
L 197.48719 93.072682 
L 197.979837 95.153142 
L 198.472484 180.785054 
L 198.965132 99.861465 
L 199.457779 60.626006 
L 199.950426 60.85213 
L 200.443074 68.304735 
L 201.428368 56.686732 
L 201.921015 60.220212 
L 202.413663 62.669525 
L 202.90631 68.828069 
L 203.398957 62.294516 
L 203.891604 68.153052 
L 204.384252 71.786722 
L 204.876899 61.005492 
L 205.369546 71.727392 
L 205.862193 74.508616 
L 206.354841 67.457886 
L 206.847488 66.801341 
L 207.340135 59.387916 
L 207.832782 70.457399 
L 208.32543 68.536457 
L 208.818077 60.680298 
L 209.310724 56.440457 
L 209.803371 58.196843 
L 210.296019 70.053285 
L 210.788666 64.182994 
L 211.281313 63.923846 
L 211.773961 62.44396 
L 212.266608 74.208049 
L 212.759255 63.702199 
L 213.251902 59.808822 
L 213.74455 63.996609 
L 214.237197 76.214627 
L 214.729844 59.823934 
L 215.222491 61.77622 
L 215.715139 66.925598 
L 216.207786 77.526599 
L 216.700433 60.110508 
L 217.19308 60.239243 
L 217.685728 65.236378 
L 218.178375 67.188664 
L 218.671022 57.607463 
L 219.163669 110.031485 
L 219.656317 150.538617 
L 220.148964 75.73663 
L 221.134259 58.35972 
L 221.626906 68.423395 
L 222.119553 73.338812 
L 222.6122 66.085465 
L 223.104848 63.558912 
L 223.597495 65.660642 
L 224.090142 71.054615 
L 224.582789 61.059785 
L 225.075437 60.369096 
L 225.568084 66.415697 
L 226.060731 64.910064 
L 226.553378 61.444869 
L 227.046026 61.317254 
L 228.03132 71.931688 
L 228.523967 63.878509 
L 229.016615 59.253025 
L 230.001909 73.493853 
L 230.494556 68.203427 
L 231.479851 63.027183 
L 231.972498 139.282749 
L 232.465146 64.738231 
L 232.957793 77.137037 
L 233.45044 65.263804 
L 233.943087 73.87222 
L 234.435735 60.056216 
L 234.928382 59.246308 
L 235.421029 64.062655 
L 235.913676 65.719971 
L 236.406324 62.264291 
L 236.898971 61.52155 
L 237.391618 70.123809 
L 237.884265 99.799336 
L 238.376913 71.996055 
L 238.86956 67.694086 
L 239.362207 67.267583 
L 239.854854 73.255974 
L 240.347502 65.315298 
L 240.840149 66.963098 
L 241.825444 83.575438 
L 242.318091 98.840545 
L 242.810738 66.636225 
L 243.303385 69.310543 
L 243.796033 67.213851 
L 244.28868 63.693244 
L 244.781327 65.514556 
L 245.273974 66.248902 
L 245.766622 76.167051 
L 246.259269 134.604092 
L 246.751916 166.569413 
L 247.244563 69.152703 
L 247.737211 77.432007 
L 248.229858 64.960998 
L 248.722505 64.531137 
L 249.215152 176.298938 
L 249.7078 135.986588 
L 250.200447 77.378834 
L 250.693094 59.569824 
L 251.185741 68.938333 
L 251.678389 82.316639 
L 252.171036 67.635876 
L 252.663683 74.111778 
L 253.156331 67.315159 
L 253.648978 76.304181 
L 254.634272 61.466698 
L 255.12692 76.910912 
L 255.619567 59.994087 
L 256.112214 58.753199 
L 256.604861 59.747813 
L 257.097509 62.539111 
L 257.590156 63.727386 
L 258.082803 105.234169 
L 258.57545 171.418783 
L 259.068098 65.751875 
L 259.560745 79.164325 
L 260.546039 63.931682 
L 261.038687 74.021104 
L 261.531334 109.841742 
L 262.023981 99.859785 
L 262.516629 68.657915 
L 263.009276 107.821171 
L 263.501923 195.099204 
L 263.99457 74.764406 
L 264.487218 66.27185 
L 265.472512 63.929443 
L 265.965159 75.0896 
L 266.457807 63.227001 
L 266.950454 73.75356 
L 267.443101 76.328249 
L 267.935748 60.318162 
L 268.428396 60.42059 
L 269.41369 69.902162 
L 269.906337 69.536668 
L 270.398985 60.285139 
L 270.891632 65.522392 
L 271.384279 69.304386 
L 271.876926 70.231274 
L 272.369574 65.047194 
L 272.862221 62.560381 
L 273.847516 71.046219 
L 274.340163 62.793222 
L 274.83281 78.930924 
L 275.325457 108.641713 
L 275.818105 89.457483 
L 276.310752 211.870503 
L 276.803399 112.187507 
L 277.296046 89.968503 
L 277.788694 84.41669 
L 278.281341 207.08606 
L 278.773988 94.734476 
L 279.266635 75.77693 
L 279.759283 117.344161 
L 280.25193 86.109828 
L 280.744577 77.522121 
L 281.237224 72.224419 
L 281.729872 199.864617 
L 282.222519 93.699003 
L 282.715166 66.441444 
L 283.207813 78.399754 
L 283.700461 74.89314 
L 284.193108 101.191907 
L 284.685755 91.479733 
L 285.178403 91.085694 
L 285.67105 79.355188 
L 286.163697 72.73376 
L 286.656344 182.779878 
L 287.641639 61.112398 
L 288.134286 54.776984 
L 288.626933 60.554922 
L 289.119581 72.36043 
L 289.612228 65.97912 
L 290.104875 63.769365 
L 290.597522 95.992715 
L 291.09017 97.830819 
L 291.582817 81.505613 
L 292.075464 146.5652 
L 292.568111 144.764038 
L 293.060759 75.084003 
L 293.553406 62.572694 
L 294.046053 62.493774 
L 294.538701 71.683175 
L 295.031348 75.323001 
L 295.523995 80.923509 
L 296.016642 82.495189 
L 296.50929 90.787366 
L 297.001937 68.980311 
L 297.494584 62.096377 
L 297.987231 70.772518 
L 298.479879 95.049035 
L 299.465173 173.82052 
L 299.95782 60.919856 
L 300.450468 89.896859 
L 300.943115 81.906928 
L 301.435762 71.296971 
L 301.928409 69.530511 
L 302.421057 90.251718 
L 303.406351 58.69331 
L 303.898998 58.843313 
L 304.391646 63.783358 
L 304.884293 67.598375 
L 305.37694 62.829044 
L 305.869588 67.953234 
L 306.362235 69.112964 
L 306.854882 63.730745 
L 307.347529 81.205046 
L 307.840177 72.385617 
L 308.332824 69.444875 
L 308.825471 82.700044 
L 309.318118 78.002357 
L 309.810766 63.617682 
L 310.303413 60.007521 
L 310.79606 63.493425 
L 311.288707 64.930214 
L 311.781355 65.363993 
L 312.274002 63.742499 
L 312.766649 68.814076 
L 313.259296 67.94204 
L 313.751944 58.92839 
L 314.244591 65.52575 
L 315.229886 97.766452 
L 316.21518 81.773716 
L 316.707827 79.899231 
L 317.200475 103.579651 
L 317.693122 114.275244 
L 318.185769 204.495699 
L 318.678416 249.135206 
L 319.171064 76.569486 
L 319.663711 67.463484 
L 320.156358 66.330621 
L 320.649005 68.70773 
L 321.141653 78.868795 
L 321.6343 91.641491 
L 322.126947 95.410611 
L 322.619594 115.48143 
L 323.112242 90.499672 
L 323.604889 98.556209 
L 324.097536 73.004102 
L 324.590183 96.078911 
L 325.082831 89.372966 
L 325.575478 78.391358 
L 326.068125 70.229035 
L 326.560773 78.159077 
L 327.05342 123.295051 
L 327.546067 112.296652 
L 328.038714 123.430502 
L 328.531362 152.561427 
L 329.024009 252.864586 
L 329.516656 295.488 
L 330.009303 168.176914 
L 330.501951 131.410358 
L 330.994598 117.030161 
L 331.487245 73.133396 
L 331.979892 64.615094 
L 332.47254 79.876282 
L 332.965187 65.724449 
L 333.457834 74.581938 
L 333.950481 70.375681 
L 334.443129 73.99032 
L 334.935776 82.149285 
L 335.428423 76.920987 
L 335.92107 78.597893 
L 336.413718 69.265766 
L 336.906365 65.95841 
L 337.399012 97.036583 
L 337.89166 143.884166 
L 338.384307 279.929603 
L 339.369601 247.81092 
L 339.862249 220.227047 
L 340.354896 115.479191 
L 340.847543 61.105122 
L 341.34019 58.450394 
L 341.832838 54.924189 
L 342.325485 64.240645 
L 343.310779 57.311374 
L 343.803427 63.502941 
L 344.296074 72.013966 
L 344.788721 57.093085 
L 345.281368 59.953788 
L 346.266663 69.294871 
L 346.75931 57.94665 
L 347.251958 55.084268 
L 348.237252 67.106385 
L 348.729899 60.257153 
L 349.222547 55.357409 
L 349.715194 59.546315 
L 350.207841 76.431796 
L 350.700488 59.133806 
L 351.193136 68.324885 
L 351.685783 63.17103 
L 352.17843 72.869211 
L 352.671077 60.316483 
L 353.163725 59.560308 
L 353.656372 68.378618 
L 354.149019 71.815827 
L 354.641666 60.681417 
L 355.134314 85.465036 
L 355.626961 63.206292 
L 356.119608 69.677156 
L 356.612255 69.253452 
L 357.104903 64.076089 
L 357.59755 62.551985 
L 358.090197 68.574518 
L 358.582845 64.653714 
L 359.075492 66.493498 
L 359.568139 74.043493 
L 360.553434 59.664415 
L 361.538728 64.448299 
L 362.031375 72.796448 
L 362.524023 56.04194 
L 363.01667 57.253163 
L 363.509317 63.446409 
L 364.001964 66.761041 
L 364.494612 68.426193 
L 364.987259 73.118284 
L 365.479906 67.478596 
L 365.972553 72.075535 
L 366.465201 69.72865 
L 366.957848 68.184396 
L 367.450495 60.908662 
L 367.943143 70.878305 
L 368.43579 64.718641 
L 368.928437 123.27714 
L 369.421084 70.600686 
L 369.913732 72.700736 
L 371.391673 57.06398 
L 371.884321 71.647913 
L 372.376968 66.878022 
L 372.869615 64.223294 
L 373.362262 65.634895 
L 373.85491 67.918532 
L 374.347557 60.730113 
L 374.840204 60.922095 
L 375.332851 69.201958 
L 375.825499 61.220423 
L 376.810793 79.982628 
L 377.30344 120.643681 
L 377.796088 73.737329 
L 378.288735 58.204679 
L 378.781382 67.570949 
L 379.27403 68.201748 
L 379.766677 71.343987 
L 380.259324 60.810152 
L 380.751971 64.680581 
L 381.244619 63.056848 
L 381.737266 69.018372 
L 382.229913 65.753554 
L 383.215208 119.70392 
L 383.707855 75.636441 
L 384.200502 66.862909 
L 384.693149 89.239194 
L 385.185797 74.002633 
L 385.678444 99.167418 
L 386.171091 108.252711 
L 386.663738 67.821701 
L 387.156386 69.543944 
L 387.649033 73.758038 
L 388.14168 63.195097 
L 388.634327 111.051286 
L 389.126975 103.747006 
L 389.619622 70.597887 
L 390.112269 72.145499 
L 390.604917 61.494124 
L 391.097564 77.349169 
L 391.590211 76.276755 
L 392.082858 118.07291 
L 392.575506 127.199063 
L 393.068153 114.405658 
L 393.5608 123.833497 
L 394.546095 64.055939 
L 395.038742 67.362175 
L 395.531389 64.846256 
L 396.024036 65.337686 
L 396.516684 90.333437 
L 397.009331 66.0558 
L 397.501978 119.581342 
L 397.994625 77.665968 
L 398.487273 103.557263 
L 398.487273 103.557263 
" clip-path="url(#pc987069f5a)" style="fill: none; stroke: #2ca02c; stroke-width: 1.5; stroke-linecap: square"/>
   </g>
   <g id="patch_3">
    <path d="M 57.6 307.584 
L 57.6 41.472 
" style="fill: none; stroke: #000000; stroke-width: 0.8; stroke-linejoin: miter; stroke-linecap: square"/>
   </g>
   <g id="patch_4">
    <path d="M 57.6 307.584 
L 414.72 307.584 
" style="fill: none; stroke: #000000; stroke-width: 0.8; stroke-linejoin: miter; stroke-linecap: square"/>
   </g>
   <g id="text_14">
    <!-- Tcp Protocol Stack Performance with Checksum Offload -->
    <g style="fill: #3b3b3d" transform="translate(79.529531 31.472) scale(0.1 -0.1)">
     <defs>
      <path id="DejaVuSans-Bold-54" d="M 31 4666 
L 4331 4666 
L 4331 3756 
L 2784 3756 
L 2784 0 
L 1581 0 
L 1581 3756 
L 31 3756 
L 31 4666 
z
" transform="scale(0.015625)"/>
      <path id="DejaVuSans-Bold-63" d="M 3366 3391 
L 3366 2478 
Q 3138 2634 2908 2709 
Q 2678 2784 2431 2784 
Q 1963 2784 1702 2511 
Q 1441 2238 1441 1747 
Q 1441 1256 1702 982 
Q 1963 709 2431 709 
Q 2694 709 2930 787 
Q 3166 866 3366 1019 
L 3366 103 
Q 3103 6 2833 -42 
Q 2563 -91 2291 -91 
Q 1344 -91 809 395 
Q 275 881 275 1747 
Q 275 2613 809 3098 
Q 1344 3584 2291 3584 
Q 2566 3584 2833 3536 
Q 3100 3488 3366 3391 
z
" transform="scale(0.015625)"/>
      <path id="DejaVuSans-Bold-70" d="M 1656 506 
L 1656 -1331 
L 538 -1331 
L 538 3500 
L 1656 3500 
L 1656 2988 
Q 1888 3294 2169 3439 
Q 2450 3584 2816 3584 
Q 3463 3584 3878 3070 
Q 4294 2556 4294 1747 
Q 4294 938 3878 423 
Q 3463 -91 2816 -91 
Q 2450 -91 2169 54 
Q 1888 200 1656 506 
z
M 2400 2772 
Q 2041 2772 1848 2508 
Q 1656 2244 1656 1747 
Q 1656 1250 1848 986 
Q 2041 722 2400 722 
Q 2759 722 2948 984 
Q 3138 1247 3138 1747 
Q 3138 2247 2948 2509 
Q 2759 2772 2400 2772 
z
" transform="scale(0.015625)"/>
      <path id="DejaVuSans-Bold-20" transform="scale(0.015625)"/>
      <path id="DejaVuSans-Bold-50" d="M 588 4666 
L 2584 4666 
Q 3475 4666 3951 4270 
Q 4428 3875 4428 3144 
Q 4428 2409 3951 2014 
Q 3475 1619 2584 1619 
L 1791 1619 
L 1791 0 
L 588 0 
L 588 4666 
z
M 1791 3794 
L 1791 2491 
L 2456 2491 
Q 2806 2491 2997 2661 
Q 3188 2831 3188 3144 
Q 3188 3456 2997 3625 
Q 2806 3794 2456 3794 
L 1791 3794 
z
" transform="scale(0.015625)"/>
      <path id="DejaVuSans-Bold-72" d="M 3138 2547 
Q 2991 2616 2845 2648 
Q 2700 2681 2553 2681 
Q 2122 2681 1889 2404 
Q 1656 2128 1656 1613 
L 1656 0 
L 538 0 
L 538 3500 
L 1656 3500 
L 1656 2925 
Q 1872 3269 2151 3426 
Q 2431 3584 2822 3584 
Q 2878 3584 2943 3579 
Q 3009 3575 3134 3559 
L 3138 2547 
z
" transform="scale(0.015625)"/>
      <path id="DejaVuSans-Bold-6f" d="M 2203 2784 
Q 1831 2784 1636 2517 
Q 1441 2250 1441 1747 
Q 1441 1244 1636 976 
Q 1831 709 2203 709 
Q 2569 709 2762 976 
Q 2956 1244 2956 1747 
Q 2956 2250 2762 2517 
Q 2569 2784 2203 2784 
z
M 2203 3584 
Q 3106 3584 3614 3096 
Q 4122 2609 4122 1747 
Q 4122 884 3614 396 
Q 3106 -91 2203 -91 
Q 1297 -91 786 396 
Q 275 884 275 1747 
Q 275 2609 786 3096 
Q 1297 3584 2203 3584 
z
" transform="scale(0.015625)"/>
      <path id="DejaVuSans-Bold-74" d="M 1759 4494 
L 1759 3500 
L 2913 3500 
L 2913 2700 
L 1759 2700 
L 1759 1216 
Q 1759 972 1856 886 
Q 1953 800 2241 800 
L 2816 800 
L 2816 0 
L 1856 0 
Q 1194 0 917 276 
Q 641 553 641 1216 
L 641 2700 
L 84 2700 
L 84 3500 
L 641 3500 
L 641 4494 
L 1759 4494 
z
" transform="scale(0.015625)"/>
      <path id="DejaVuSans-Bold-6c" d="M 538 4863 
L 1656 4863 
L 1656 0 
L 538 0 
L 538 4863 
z
" transform="scale(0.015625)"/>
      <path id="DejaVuSans-Bold-53" d="M 3834 4519 
L 3834 3531 
Q 3450 3703 3084 3790 
Q 2719 3878 2394 3878 
Q 1963 3878 1756 3759 
Q 1550 3641 1550 3391 
Q 1550 3203 1689 3098 
Q 1828 2994 2194 2919 
L 2706 2816 
Q 3484 2659 3812 2340 
Q 4141 2022 4141 1434 
Q 4141 663 3683 286 
Q 3225 -91 2284 -91 
Q 1841 -91 1394 -6 
Q 947 78 500 244 
L 500 1259 
Q 947 1022 1364 901 
Q 1781 781 2169 781 
Q 2563 781 2772 912 
Q 2981 1044 2981 1288 
Q 2981 1506 2839 1625 
Q 2697 1744 2272 1838 
L 1806 1941 
Q 1106 2091 782 2419 
Q 459 2747 459 3303 
Q 459 4000 909 4375 
Q 1359 4750 2203 4750 
Q 2588 4750 2994 4692 
Q 3400 4634 3834 4519 
z
" transform="scale(0.015625)"/>
      <path id="DejaVuSans-Bold-61" d="M 2106 1575 
Q 1756 1575 1579 1456 
Q 1403 1338 1403 1106 
Q 1403 894 1545 773 
Q 1688 653 1941 653 
Q 2256 653 2472 879 
Q 2688 1106 2688 1447 
L 2688 1575 
L 2106 1575 
z
M 3816 1997 
L 3816 0 
L 2688 0 
L 2688 519 
Q 2463 200 2181 54 
Q 1900 -91 1497 -91 
Q 953 -91 614 226 
Q 275 544 275 1050 
Q 275 1666 698 1953 
Q 1122 2241 2028 2241 
L 2688 2241 
L 2688 2328 
Q 2688 2594 2478 2717 
Q 2269 2841 1825 2841 
Q 1466 2841 1156 2769 
Q 847 2697 581 2553 
L 581 3406 
Q 941 3494 1303 3539 
Q 1666 3584 2028 3584 
Q 2975 3584 3395 3211 
Q 3816 2838 3816 1997 
z
" transform="scale(0.015625)"/>
      <path id="DejaVuSans-Bold-6b" d="M 538 4863 
L 1656 4863 
L 1656 2216 
L 2944 3500 
L 4244 3500 
L 2534 1894 
L 4378 0 
L 3022 0 
L 1656 1459 
L 1656 0 
L 538 0 
L 538 4863 
z
" transform="scale(0.015625)"/>
      <path id="DejaVuSans-Bold-65" d="M 4031 1759 
L 4031 1441 
L 1416 1441 
Q 1456 1047 1700 850 
Q 1944 653 2381 653 
Q 2734 653 3104 758 
Q 3475 863 3866 1075 
L 3866 213 
Q 3469 63 3072 -14 
Q 2675 -91 2278 -91 
Q 1328 -91 801 392 
Q 275 875 275 1747 
Q 275 2603 792 3093 
Q 1309 3584 2216 3584 
Q 3041 3584 3536 3087 
Q 4031 2591 4031 1759 
z
M 2881 2131 
Q 2881 2450 2695 2645 
Q 2509 2841 2209 2841 
Q 1884 2841 1681 2658 
Q 1478 2475 1428 2131 
L 2881 2131 
z
" transform="scale(0.015625)"/>
      <path id="DejaVuSans-Bold-66" d="M 2841 4863 
L 2841 4128 
L 2222 4128 
Q 1984 4128 1890 4042 
Q 1797 3956 1797 3744 
L 1797 3500 
L 2753 3500 
L 2753 2700 
L 1797 2700 
L 1797 0 
L 678 0 
L 678 2700 
L 122 2700 
L 122 3500 
L 678 3500 
L 678 3744 
Q 678 4316 997 4589 
Q 1316 4863 1984 4863 
L 2841 4863 
z
" transform="scale(0.015625)"/>
      <path id="DejaVuSans-Bold-6d" d="M 3781 2919 
Q 3994 3244 4286 3414 
Q 4578 3584 4928 3584 
Q 5531 3584 5847 3212 
Q 6163 2841 6163 2131 
L 6163 0 
L 5038 0 
L 5038 1825 
Q 5041 1866 5042 1909 
Q 5044 1953 5044 2034 
Q 5044 2406 4934 2573 
Q 4825 2741 4581 2741 
Q 4263 2741 4089 2478 
Q 3916 2216 3909 1719 
L 3909 0 
L 2784 0 
L 2784 1825 
Q 2784 2406 2684 2573 
Q 2584 2741 2328 2741 
Q 2006 2741 1831 2477 
Q 1656 2213 1656 1722 
L 1656 0 
L 531 0 
L 531 3500 
L 1656 3500 
L 1656 2988 
Q 1863 3284 2130 3434 
Q 2397 3584 2719 3584 
Q 3081 3584 3359 3409 
Q 3638 3234 3781 2919 
z
" transform="scale(0.015625)"/>
      <path id="DejaVuSans-Bold-6e" d="M 4056 2131 
L 4056 0 
L 2931 0 
L 2931 347 
L 2931 1631 
Q 2931 2084 2911 2256 
Q 2891 2428 2841 2509 
Q 2775 2619 2662 2680 
Q 2550 2741 2406 2741 
Q 2056 2741 1856 2470 
Q 1656 2200 1656 1722 
L 1656 0 
L 538 0 
L 538 3500 
L 1656 3500 
L 1656 2988 
Q 1909 3294 2193 3439 
Q 2478 3584 2822 3584 
Q 3428 3584 3742 3212 
Q 4056 2841 4056 2131 
z
" transform="scale(0.015625)"/>
      <path id="DejaVuSans-Bold-77" d="M 225 3500 
L 1313 3500 
L 1900 1088 
L 2491 3500 
L 3425 3500 
L 4013 1113 
L 4603 3500 
L 5691 3500 
L 4769 0 
L 3547 0 
L 2956 2406 
L 2369 0 
L 1147 0 
L 225 3500 
z
" transform="scale(0.015625)"/>
      <path id="DejaVuSans-Bold-69" d="M 538 3500 
L 1656 3500 
L 1656 0 
L 538 0 
L 538 3500 
z
M 538 4863 
L 1656 4863 
L 1656 3950 
L 538 3950 
L 538 4863 
z
" transform="scale(0.015625)"/>
      <path id="DejaVuSans-Bold-68" d="M 4056 2131 
L 4056 0 
L 2931 0 
L 2931 347 
L 2931 1625 
Q 2931 2084 2911 2256 
Q 2891 2428 2841 2509 
Q 2775 2619 2662 2680 
Q 2550 2741 2406 2741 
Q 2056 2741 1856 2470 
Q 1656 2200 1656 1722 
L 1656 0 
L 538 0 
L 538 4863 
L 1656 4863 
L 1656 2988 
Q 1909 3294 2193 3439 
Q 2478 3584 2822 3584 
Q 3428 3584 3742 3212 
Q 4056 2841 4056 2131 
z
" transform="scale(0.015625)"/>
      <path id="DejaVuSans-Bold-43" d="M 4288 256 
Q 3956 84 3597 -3 
Q 3238 -91 2847 -91 
Q 1681 -91 1000 561 
Q 319 1213 319 2328 
Q 319 3447 1000 4098 
Q 1681 4750 2847 4750 
Q 3238 4750 3597 4662 
Q 3956 4575 4288 4403 
L 4288 3438 
Q 3953 3666 3628 3772 
Q 3303 3878 2944 3878 
Q 2300 3878 1931 3465 
Q 1563 3053 1563 2328 
Q 1563 1606 1931 1193 
Q 2300 781 2944 781 
Q 3303 781 3628 887 
Q 3953 994 4288 1222 
L 4288 256 
z
" transform="scale(0.015625)"/>
      <path id="DejaVuSans-Bold-73" d="M 3272 3391 
L 3272 2541 
Q 2913 2691 2578 2766 
Q 2244 2841 1947 2841 
Q 1628 2841 1473 2761 
Q 1319 2681 1319 2516 
Q 1319 2381 1436 2309 
Q 1553 2238 1856 2203 
L 2053 2175 
Q 2913 2066 3209 1816 
Q 3506 1566 3506 1031 
Q 3506 472 3093 190 
Q 2681 -91 1863 -91 
Q 1516 -91 1145 -36 
Q 775 19 384 128 
L 384 978 
Q 719 816 1070 734 
Q 1422 653 1784 653 
Q 2113 653 2278 743 
Q 2444 834 2444 1013 
Q 2444 1163 2330 1236 
Q 2216 1309 1875 1350 
L 1678 1375 
Q 931 1469 631 1722 
Q 331 1975 331 2491 
Q 331 3047 712 3315 
Q 1094 3584 1881 3584 
Q 2191 3584 2531 3537 
Q 2872 3491 3272 3391 
z
" transform="scale(0.015625)"/>
      <path id="DejaVuSans-Bold-75" d="M 500 1363 
L 500 3500 
L 1625 3500 
L 1625 3150 
Q 1625 2866 1622 2436 
Q 1619 2006 1619 1863 
Q 1619 1441 1641 1255 
Q 1663 1069 1716 984 
Q 1784 875 1895 815 
Q 2006 756 2150 756 
Q 2500 756 2700 1025 
Q 2900 1294 2900 1772 
L 2900 3500 
L 4019 3500 
L 4019 0 
L 2900 0 
L 2900 506 
Q 2647 200 2364 54 
Q 2081 -91 1741 -91 
Q 1134 -91 817 281 
Q 500 653 500 1363 
z
" transform="scale(0.015625)"/>
      <path id="DejaVuSans-Bold-4f" d="M 2719 3878 
Q 2169 3878 1866 3472 
Q 1563 3066 1563 2328 
Q 1563 1594 1866 1187 
Q 2169 781 2719 781 
Q 3272 781 3575 1187 
Q 3878 1594 3878 2328 
Q 3878 3066 3575 3472 
Q 3272 3878 2719 3878 
z
M 2719 4750 
Q 3844 4750 4481 4106 
Q 5119 3463 5119 2328 
Q 5119 1197 4481 553 
Q 3844 -91 2719 -91 
Q 1597 -91 958 553 
Q 319 1197 319 2328 
Q 319 3463 958 4106 
Q 1597 4750 2719 4750 
z
" transform="scale(0.015625)"/>
      <path id="DejaVuSans-Bold-64" d="M 2919 2988 
L 2919 4863 
L 4044 4863 
L 4044 0 
L 2919 0 
L 2919 506 
Q 2688 197 2409 53 
Q 2131 -91 1766 -91 
Q 1119 -91 703 423 
Q 288 938 288 1747 
Q 288 2556 703 3070 
Q 1119 3584 1766 3584 
Q 2128 3584 2408 3439 
Q 2688 3294 2919 2988 
z
M 2181 722 
Q 2541 722 2730 984 
Q 2919 1247 2919 1747 
Q 2919 2247 2730 2509 
Q 2541 2772 2181 2772 
Q 1825 2772 1636 2509 
Q 1447 2247 1447 1747 
Q 1447 1247 1636 984 
Q 1825 722 2181 722 
z
" transform="scale(0.015625)"/>
     </defs>
     <use xlink:href="#DejaVuSans-Bold-54"/>
     <use xlink:href="#DejaVuSans-Bold-63" x="54.962891"/>
     <use xlink:href="#DejaVuSans-Bold-70" x="114.240234"/>
     <use xlink:href="#DejaVuSans-Bold-20" x="185.822266"/>
     <use xlink:href="#DejaVuSans-Bold-50" x="220.636719"/>
     <use xlink:href="#DejaVuSans-Bold-72" x="293.927734"/>
     <use xlink:href="#DejaVuSans-Bold-6f" x="343.244141"/>
     <use xlink:href="#DejaVuSans-Bold-74" x="411.945312"/>
     <use xlink:href="#DejaVuSans-Bold-6f" x="459.748047"/>
     <use xlink:href="#DejaVuSans-Bold-63" x="528.449219"/>
     <use xlink:href="#DejaVuSans-Bold-6f" x="587.726562"/>
     <use xlink:href="#DejaVuSans-Bold-6c" x="656.427734"/>
     <use xlink:href="#DejaVuSans-Bold-20" x="690.705078"/>
     <use xlink:href="#DejaVuSans-Bold-53" x="725.519531"/>
     <use xlink:href="#DejaVuSans-Bold-74" x="797.541016"/>
     <use xlink:href="#DejaVuSans-Bold-61" x="845.34375"/>
     <use xlink:href="#DejaVuSans-Bold-63" x="912.824219"/>
     <use xlink:href="#DejaVuSans-Bold-6b" x="972.101562"/>
     <use xlink:href="#DejaVuSans-Bold-20" x="1038.605469"/>
     <use xlink:href="#DejaVuSans-Bold-50" x="1073.419922"/>
     <use xlink:href="#DejaVuSans-Bold-65" x="1146.710938"/>
     <use xlink:href="#DejaVuSans-Bold-72" x="1214.533203"/>
     <use xlink:href="#DejaVuSans-Bold-66" x="1263.849609"/>
     <use xlink:href="#DejaVuSans-Bold-6f" x="1307.355469"/>
     <use xlink:href="#DejaVuSans-Bold-72" x="1376.056641"/>
     <use xlink:href="#DejaVuSans-Bold-6d" x="1425.373047"/>
     <use xlink:href="#DejaVuSans-Bold-61" x="1529.572266"/>
     <use xlink:href="#DejaVuSans-Bold-6e" x="1597.052734"/>
     <use xlink:href="#DejaVuSans-Bold-63" x="1668.244141"/>
     <use xlink:href="#DejaVuSans-Bold-65" x="1727.521484"/>
     <use xlink:href="#DejaVuSans-Bold-20" x="1795.34375"/>
     <use xlink:href="#DejaVuSans-Bold-77" x="1830.158203"/>
     <use xlink:href="#DejaVuSans-Bold-69" x="1922.541016"/>
     <use xlink:href="#DejaVuSans-Bold-74" x="1956.818359"/>
     <use xlink:href="#DejaVuSans-Bold-68" x="2004.621094"/>
     <use xlink:href="#DejaVuSans-Bold-20" x="2075.8125"/>
     <use xlink:href="#DejaVuSans-Bold-43" x="2110.626953"/>
     <use xlink:href="#DejaVuSans-Bold-68" x="2184.015625"/>
     <use xlink:href="#DejaVuSans-Bold-65" x="2255.207031"/>
     <use xlink:href="#DejaVuSans-Bold-63" x="2323.029297"/>
     <use xlink:href="#DejaVuSans-Bold-6b" x="2382.306641"/>
     <use xlink:href="#DejaVuSans-Bold-73" x="2448.810547"/>
     <use xlink:href="#DejaVuSans-Bold-75" x="2508.332031"/>
     <use xlink:href="#DejaVuSans-Bold-6d" x="2579.523438"/>
     <use xlink:href="#DejaVuSans-Bold-20" x="2683.722656"/>
     <use xlink:href="#DejaVuSans-Bold-4f" x="2718.537109"/>
     <use xlink:href="#DejaVuSans-Bold-66" x="2803.546875"/>
     <use xlink:href="#DejaVuSans-Bold-66" x="2847.052734"/>
     <use xlink:href="#DejaVuSans-Bold-6c" x="2890.558594"/>
     <use xlink:href="#DejaVuSans-Bold-6f" x="2924.835938"/>
     <use xlink:href="#DejaVuSans-Bold-61" x="2993.537109"/>
     <use xlink:href="#DejaVuSans-Bold-64" x="3061.017578"/>
    </g>
   </g>
   <g id="legend_1">
    <g id="patch_5">
     <path d="M 64.6 302.584 
L 137.840625 302.584 
Q 139.840625 302.584 139.840625 300.584 
L 139.840625 257.549625 
Q 139.840625 255.549625 137.840625 255.549625 
L 64.6 255.549625 
Q 62.6 255.549625 62.6 257.549625 
L 62.6 300.584 
Q 62.6 302.584 64.6 302.584 
z
" style="fill: #ffffff; opacity: 0.8; stroke: #cccccc; stroke-linejoin: miter"/>
    </g>
    <g id="line2d_16">
     <path d="M 66.6 263.648062 
L 76.6 263.648062 
L 86.6 263.648062 
" style="fill: none; stroke: #1f77b4; stroke-width: 1.5; stroke-linecap: square"/>
    </g>
    <g id="text_15">
     <!-- Pbuf -->
     <g transform="translate(94.6 267.148062) scale(0.1 -0.1)">
      <defs>
       <path id="DejaVuSans-66" d="M 2375 4863 
L 2375 4384 
L 1825 4384 
Q 1516 4384 1395 4259 
Q 1275 4134 1275 3809 
L 1275 3500 
L 2222 3500 
L 2222 3053 
L 1275 3053 
L 1275 0 
L 697 0 
L 697 3053 
L 147 3053 
L 147 3500 
L 697 3500 
L 697 3744 
Q 697 4328 969 4595 
Q 1241 4863 1831 4863 
L 2375 4863 
z
" transform="scale(0.015625)"/>
      </defs>
      <use xlink:href="#DejaVuSans-50"/>
      <use xlink:href="#DejaVuSans-62" x="60.302734"/>
      <use xlink:href="#DejaVuSans-75" x="123.779297"/>
      <use xlink:href="#DejaVuSans-66" x="187.158203"/>
     </g>
    </g>
    <g id="line2d_17">
     <path d="M 66.6 278.326188 
L 76.6 278.326188 
L 86.6 278.326188 
" style="fill: none; stroke: #ff7f0e; stroke-width: 1.5; stroke-linecap: square"/>
    </g>
    <g id="text_16">
     <!-- SmolTcp -->
     <g transform="translate(94.6 281.826188) scale(0.1 -0.1)">
      <defs>
       <path id="DejaVuSans-53" d="M 3425 4513 
L 3425 3897 
Q 3066 4069 2747 4153 
Q 2428 4238 2131 4238 
Q 1616 4238 1336 4038 
Q 1056 3838 1056 3469 
Q 1056 3159 1242 3001 
Q 1428 2844 1947 2747 
L 2328 2669 
Q 3034 2534 3370 2195 
Q 3706 1856 3706 1288 
Q 3706 609 3251 259 
Q 2797 -91 1919 -91 
Q 1588 -91 1214 -16 
Q 841 59 441 206 
L 441 856 
Q 825 641 1194 531 
Q 1563 422 1919 422 
Q 2459 422 2753 634 
Q 3047 847 3047 1241 
Q 3047 1584 2836 1778 
Q 2625 1972 2144 2069 
L 1759 2144 
Q 1053 2284 737 2584 
Q 422 2884 422 3419 
Q 422 4038 858 4394 
Q 1294 4750 2059 4750 
Q 2388 4750 2728 4690 
Q 3069 4631 3425 4513 
z
" transform="scale(0.015625)"/>
       <path id="DejaVuSans-6d" d="M 3328 2828 
Q 3544 3216 3844 3400 
Q 4144 3584 4550 3584 
Q 5097 3584 5394 3201 
Q 5691 2819 5691 2113 
L 5691 0 
L 5113 0 
L 5113 2094 
Q 5113 2597 4934 2840 
Q 4756 3084 4391 3084 
Q 3944 3084 3684 2787 
Q 3425 2491 3425 1978 
L 3425 0 
L 2847 0 
L 2847 2094 
Q 2847 2600 2669 2842 
Q 2491 3084 2119 3084 
Q 1678 3084 1418 2786 
Q 1159 2488 1159 1978 
L 1159 0 
L 581 0 
L 581 3500 
L 1159 3500 
L 1159 2956 
Q 1356 3278 1631 3431 
Q 1906 3584 2284 3584 
Q 2666 3584 2933 3390 
Q 3200 3197 3328 2828 
z
" transform="scale(0.015625)"/>
       <path id="DejaVuSans-6c" d="M 603 4863 
L 1178 4863 
L 1178 0 
L 603 0 
L 603 4863 
z
" transform="scale(0.015625)"/>
       <path id="DejaVuSans-63" d="M 3122 3366 
L 3122 2828 
Q 2878 2963 2633 3030 
Q 2388 3097 2138 3097 
Q 1578 3097 1268 2742 
Q 959 2388 959 1747 
Q 959 1106 1268 751 
Q 1578 397 2138 397 
Q 2388 397 2633 464 
Q 2878 531 3122 666 
L 3122 134 
Q 2881 22 2623 -34 
Q 2366 -91 2075 -91 
Q 1284 -91 818 406 
Q 353 903 353 1747 
Q 353 2603 823 3093 
Q 1294 3584 2113 3584 
Q 2378 3584 2631 3529 
Q 2884 3475 3122 3366 
z
" transform="scale(0.015625)"/>
      </defs>
      <use xlink:href="#DejaVuSans-53"/>
      <use xlink:href="#DejaVuSans-6d" x="63.476562"/>
      <use xlink:href="#DejaVuSans-6f" x="160.888672"/>
      <use xlink:href="#DejaVuSans-6c" x="222.070312"/>
      <use xlink:href="#DejaVuSans-54" x="249.853516"/>
      <use xlink:href="#DejaVuSans-63" x="293.9375"/>
      <use xlink:href="#DejaVuSans-70" x="348.917969"/>
     </g>
    </g>
    <g id="line2d_18">
     <path d="M 66.6 293.004312 
L 76.6 293.004312 
L 86.6 293.004312 
" style="fill: none; stroke: #2ca02c; stroke-width: 1.5; stroke-linecap: square"/>
    </g>
    <g id="text_17">
     <!-- Cursor -->
     <g transform="translate(94.6 296.504312) scale(0.1 -0.1)">
      <defs>
       <path id="DejaVuSans-43" d="M 4122 4306 
L 4122 3641 
Q 3803 3938 3442 4084 
Q 3081 4231 2675 4231 
Q 1875 4231 1450 3742 
Q 1025 3253 1025 2328 
Q 1025 1406 1450 917 
Q 1875 428 2675 428 
Q 3081 428 3442 575 
Q 3803 722 4122 1019 
L 4122 359 
Q 3791 134 3420 21 
Q 3050 -91 2638 -91 
Q 1578 -91 968 557 
Q 359 1206 359 2328 
Q 359 3453 968 4101 
Q 1578 4750 2638 4750 
Q 3056 4750 3426 4639 
Q 3797 4528 4122 4306 
z
" transform="scale(0.015625)"/>
      </defs>
      <use xlink:href="#DejaVuSans-43"/>
      <use xlink:href="#DejaVuSans-75" x="69.824219"/>
      <use xlink:href="#DejaVuSans-72" x="133.203125"/>
      <use xlink:href="#DejaVuSans-73" x="174.316406"/>
      <use xlink:href="#DejaVuSans-6f" x="226.416016"/>
      <use xlink:href="#DejaVuSans-72" x="287.597656"/>
     </g>
    </g>
   </g>
  </g>
 </g>
 <defs>
  <clipPath id="pc987069f5a">
   <rect x="57.6" y="41.472" width="357.12" height="266.112"/>
  </clipPath>
 </defs>
</svg>
